<svg  width="44.000000" height="44.000000" viewBox="0 0 44 44" fill="none" xmlns="http://www.w3.org/2000/svg" xmlns:xlink="http://www.w3.org/1999/xlink">
	<desc>
			Created with Pixso.
	</desc>
	<defs>
		<clipPath id="clip250_71765">
			<rect id="Desktop/ Computer" rx="-0.500000" width="43.000000" height="43.000000" transform="translate(0.500000 0.500000)" fill="white" fill-opacity="0"/>
		</clipPath>
	</defs>
	<rect id="Desktop/ Computer" rx="-0.500000" width="43.000000" height="43.000000" transform="translate(0.500000 0.500000)" fill="#000" fill-opacity="0"/>
	<g clip-path="url(#clip250_71765)">
		<path id="Vector" d="M31.39 29.63L12.6 29.63C11.16 29.63 10 28.41 10 26.9L10 12.72C10 11.22 11.16 9.99 12.6 9.99L31.39 9.99C32.83 9.99 34 11.22 34 12.72L34 26.9C34 28.41 32.83 29.63 31.39 29.63ZM12.6 11.09C11.74 11.09 11.04 11.82 11.04 12.72L11.04 26.9C11.04 27.81 11.74 28.54 12.6 28.54L31.39 28.54C32.25 28.54 32.95 27.81 32.95 26.9L32.95 12.72C32.95 11.82 32.25 11.09 31.39 11.09L12.6 11.09Z" fill="#000" fill-opacity="1.000000" fill-rule="nonzero"/>
		<path id="Vector" d="M28.26 34L15.74 34C15.45 34 15.21 33.75 15.21 33.45C15.21 33.15 15.45 32.9 15.74 32.9L28.26 32.9C28.55 32.9 28.78 33.15 28.78 33.45C28.78 33.75 28.55 34 28.26 34Z" fill="#000" fill-opacity="1.000000" fill-rule="nonzero"/>
		<path id="Vector" d="M33.47 25.27L10.52 25.27C10.23 25.27 10 25.02 10 24.72C10 24.42 10.23 24.18 10.52 24.18L33.47 24.18C33.76 24.18 34 24.42 34 24.72C34 25.02 33.76 25.27 33.47 25.27Z" fill="#000" fill-opacity="1.000000" fill-rule="nonzero"/>
		<path id="Vector" d="M26.17 33.99C24.24 33.99 23.66 29.96 23.57 29.15C23.53 28.85 23.73 28.58 24.02 28.54C24.3 28.51 24.57 28.72 24.6 29.02C24.8 30.65 25.45 32.9 26.17 32.9C26.46 32.9 26.69 33.15 26.69 33.45C26.69 33.75 26.46 33.99 26.17 33.99Z" fill="#000" fill-opacity="1.000000" fill-rule="nonzero"/>
		<path id="Vector" d="M17.82 33.99C17.53 33.99 17.3 33.75 17.3 33.45C17.3 33.15 17.53 32.9 17.82 32.9C18.54 32.9 19.19 30.65 19.39 29.02C19.42 28.72 19.69 28.51 19.97 28.54C20.26 28.58 20.46 28.85 20.42 29.15C20.32 29.96 19.75 33.99 17.82 33.99Z" fill="#000" fill-opacity="1.000000" fill-rule="nonzero"/>
	</g>
</svg>
