<svg width="44.000000" height="44.000000" viewBox="0 0 44 44" fill="none" xmlns="http://www.w3.org/2000/svg" xmlns:xlink="http://www.w3.org/1999/xlink">
	<desc>
			Created with Pixso.
	</desc>
	<defs>
		<clipPath id="clip250_71766">
			<rect id="Desktop/ Globe" rx="-0.500000" width="43.000000" height="43.000000" transform="translate(0.500000 0.500000)" fill="white" fill-opacity="0"/>
		</clipPath>
	</defs>
	<rect id="Desktop/ Globe" rx="-0.500000" width="43.000000" height="43.000000" transform="translate(0.500000 0.500000)" fill="#000" fill-opacity="0"/>
	<g clip-path="url(#clip250_71766)">
		<path id="Vector" d="M22 34C15.38 34 10 28.61 10 22C10 15.38 15.38 9.99 22 9.99C28.61 9.99 34 15.38 34 22C34 28.61 28.61 34 22 34ZM22 11.04C15.95 11.04 11.04 15.95 11.04 22C11.04 28.04 15.95 32.95 22 32.95C28.04 32.95 32.95 28.04 32.95 22C32.95 15.95 28.04 11.04 22 11.04Z" fill="#000" fill-opacity="1.000000" fill-rule="nonzero"/>
		<path id="Vector" d="M22 34C18.19 34 15.21 28.72 15.21 22C15.21 15.27 18.19 9.99 22 9.99C25.8 9.99 28.78 15.27 28.78 22C28.78 28.72 25.8 34 22 34ZM22 11.04C18.89 11.04 16.26 16.06 16.26 22C16.26 27.93 18.89 32.95 22 32.95C25.11 32.95 27.74 27.93 27.74 22C27.74 16.06 25.11 11.04 22 11.04Z" fill="#000" fill-opacity="1.000000" fill-rule="nonzero"/>
		<path id="Vector" d="M33.47 22.52L10.52 22.52C10.23 22.52 10 22.28 10 21.99C10 21.71 10.23 21.47 10.52 21.47L33.47 21.47C33.76 21.47 34 21.71 34 21.99C34 22.28 33.76 22.52 33.47 22.52Z" fill="#000" fill-opacity="1.000000" fill-rule="nonzero"/>
		<path id="Vector" d="M31.62 16.26L12.38 16.26C12.09 16.26 11.85 16.02 11.85 15.73C11.85 15.45 12.09 15.21 12.38 15.21L31.62 15.21C31.91 15.21 32.14 15.45 32.14 15.73C32.14 16.02 31.91 16.26 31.62 16.26Z" fill="#000" fill-opacity="1.000000" fill-rule="nonzero"/>
		<path id="Vector" d="M31.62 28.78L12.38 28.78C12.09 28.78 11.85 28.54 11.85 28.26C11.85 27.97 12.09 27.73 12.38 27.73L31.62 27.73C31.91 27.73 32.14 27.97 32.14 28.26C32.14 28.54 31.91 28.78 31.62 28.78Z" fill="#000" fill-opacity="1.000000" fill-rule="nonzero"/>
		<path id="Vector" d="M22 34C21.71 34 21.47 33.76 21.47 33.47L21.47 10.52C21.47 10.23 21.71 9.99 22 9.99C22.28 9.99 22.51 10.23 22.51 10.52L22.51 33.47C22.51 33.76 22.28 34 22 34Z" fill="#000" fill-opacity="1.000000" fill-rule="nonzero"/>
	</g>
</svg>
