<svg width="189.820312" height="189.818359" viewBox="0 0 189.82 189.818" fill="none" xmlns="http://www.w3.org/2000/svg" xmlns:xlink="http://www.w3.org/1999/xlink">
	<desc>
			Created with Pixso.
	</desc>
	<defs/>
	<path id="Vector" d="M58.91 2.25C58.91 1.62 58.68 1.09 58.25 0.65C57.81 0.21 57.28 0 56.66 0L54.61 0C53.99 0 53.46 0.21 53.02 0.65C52.58 1.09 52.36 1.62 52.36 2.25L52.36 4.29C52.36 4.32 52.36 4.38 52.37 4.44L52.36 4.44L52.36 6.54L58.91 6.54L58.91 4.44L58.89 4.44C58.9 4.38 58.91 4.32 58.91 4.29L58.91 2.25Z" fill="#205BC9" fill-opacity="1.000000" fill-rule="nonzero"/>
	<path id="Vector" d="M78.54 4.29C78.54 4.91 78.32 5.44 77.88 5.88C77.44 6.32 76.91 6.54 76.29 6.54L74.25 6.54C73.62 6.54 73.09 6.32 72.66 5.88C72.21 5.44 72 4.91 72 4.29L72 2.25C72 1.62 72.21 1.09 72.66 0.65C73.09 0.21 73.62 0 74.25 0L76.29 0C76.91 0 77.44 0.21 77.88 0.65C78.32 1.09 78.54 1.62 78.54 2.25L78.54 4.29Z" fill="#205BC9" fill-opacity="1.000000" fill-rule="nonzero"/>
	<path id="Vector" d="M91.64 2.25C91.64 1.62 91.41 1.09 90.98 0.65C90.54 0.21 90.01 0 89.39 0L87.34 0C86.72 0 86.19 0.21 85.75 0.65C85.31 1.09 85.09 1.62 85.09 2.25L85.09 4.29C85.09 4.32 85.09 4.38 85.1 4.44L85.09 4.44L85.09 6.54L91.64 6.54L91.64 4.44L91.62 4.44C91.63 4.38 91.64 4.32 91.64 4.29L91.64 2.25Z" fill="#205BC9" fill-opacity="1.000000" fill-rule="nonzero"/>
	<path id="Vector" d="M104.73 4.29C104.73 4.91 104.5 5.44 104.07 5.88C103.63 6.32 103.1 6.54 102.48 6.54L100.43 6.54C99.81 6.54 99.28 6.32 98.84 5.88C98.4 5.44 98.18 4.91 98.18 4.29L98.18 2.25C98.18 1.62 98.4 1.09 98.84 0.65C99.28 0.21 99.81 0 100.43 0L102.48 0C103.1 0 103.63 0.21 104.07 0.65C104.5 1.09 104.73 1.62 104.73 2.25L104.73 4.29Z" fill="#205BC9" fill-opacity="1.000000" fill-rule="nonzero"/>
	<path id="Vector" d="M130.91 2.25L130.91 0L126.61 0C125.99 0 125.46 0.21 125.02 0.65C124.58 1.09 124.36 1.62 124.36 2.25L124.36 4.29C124.36 4.91 124.58 5.44 125.02 5.88C125.46 6.32 125.99 6.54 126.61 6.54L130.91 6.54L130.91 2.25Z" fill="#205BC9" fill-opacity="1.000000" fill-rule="nonzero"/>
	<path id="Vector" d="M135.2 0L130.91 0L130.91 6.54L135.2 6.54C135.82 6.54 136.35 6.32 136.79 5.88C137.23 5.44 137.45 4.91 137.45 4.29L137.45 2.25C137.45 1.62 137.23 1.09 136.79 0.65C136.35 0.21 135.82 0 135.2 0Z" fill="#205BC9" fill-opacity="1.000000" fill-rule="nonzero"/>
	<path id="Vector" d="M58.91 6.54L52.36 6.54L52.36 10.84C52.36 11.46 52.58 11.99 53.02 12.43C53.46 12.87 53.99 13.09 54.61 13.09L58.91 13.09L58.91 6.54Z" fill="#205BC9" fill-opacity="1.000000" fill-rule="nonzero"/>
	<path id="Vector" d="M63.2 6.54L58.91 6.54L58.91 13.09L63.2 13.09C63.82 13.09 64.35 12.87 64.79 12.43C65.23 11.99 65.45 11.46 65.45 10.84L65.45 8.79C65.45 8.17 65.23 7.64 64.79 7.2C64.35 6.76 63.82 6.54 63.2 6.54Z" fill="#205BC9" fill-opacity="1.000000" fill-rule="nonzero"/>
	<path id="Vector" d="M85.09 8.79L85.09 6.54L80.79 6.54C80.17 6.54 79.64 6.76 79.2 7.2C78.76 7.64 78.54 8.17 78.54 8.79L78.54 13.09L85.09 13.09L85.09 8.79Z" fill="#205BC9" fill-opacity="1.000000" fill-rule="nonzero"/>
	<path id="Vector" d="M91.64 6.54L85.09 6.54L85.09 13.09L89.39 13.09C90.01 13.09 90.54 12.87 90.98 12.43C91.41 11.99 91.64 11.46 91.64 10.84L91.64 6.54Z" fill="#205BC9" fill-opacity="1.000000" fill-rule="nonzero"/>
	<path id="Vector" d="M111.27 8.79L111.27 6.54L106.97 6.54C106.35 6.54 105.82 6.76 105.38 7.2C104.94 7.64 104.72 8.17 104.72 8.79L104.72 13.09L111.27 13.09L111.27 8.79Z" fill="#205BC9" fill-opacity="1.000000" fill-rule="nonzero"/>
	<path id="Vector" d="M111.27 6.54L117.82 6.54L117.82 13.09L111.27 13.09L111.27 6.54Z" fill="#205BC9" fill-opacity="1.000000" fill-rule="evenodd"/>
	<path id="Vector" d="M122.11 6.54L117.82 6.54L117.82 13.09L122.11 13.09C122.73 13.09 123.27 12.87 123.7 12.43C124.14 11.99 124.36 11.46 124.36 10.84L124.36 8.79C124.36 8.17 124.14 7.64 123.7 7.2C123.27 6.76 122.73 6.54 122.11 6.54Z" fill="#205BC9" fill-opacity="1.000000" fill-rule="nonzero"/>
	<path id="Vector" d="M78.54 15.34L78.54 13.09L74.25 13.09C73.62 13.09 73.09 13.31 72.66 13.74C72.21 14.18 72 14.71 72 15.34L72 19.63L78.54 19.63L78.54 15.34Z" fill="#205BC9" fill-opacity="1.000000" fill-rule="nonzero"/>
	<path id="Vector" d="M78.54 13.09L85.09 13.09L85.09 19.63L78.54 19.63L78.54 13.09Z" fill="#205BC9" fill-opacity="1.000000" fill-rule="evenodd"/>
	<path id="Vector" d="M111.25 15.18L111.27 15.18L111.27 13.09L104.72 13.09L104.72 15.18L104.73 15.18C104.73 15.25 104.72 15.3 104.72 15.34L104.72 17.38C104.72 18 104.94 18.53 105.38 18.97C105.82 19.41 106.35 19.63 106.97 19.63L109.02 19.63C109.64 19.63 110.17 19.41 110.61 18.97C111.05 18.53 111.27 18 111.27 17.38L111.27 15.34C111.27 15.3 111.27 15.25 111.25 15.18Z" fill="#205BC9" fill-opacity="1.000000" fill-rule="nonzero"/>
	<path id="Vector" d="M130.91 15.34L130.91 13.09L126.61 13.09C125.99 13.09 125.46 13.31 125.02 13.74C124.58 14.18 124.36 14.71 124.36 15.34L124.36 17.38C124.36 18 124.58 18.53 125.02 18.97C125.46 19.41 125.99 19.63 126.61 19.63L130.91 19.63L130.91 15.34Z" fill="#205BC9" fill-opacity="1.000000" fill-rule="nonzero"/>
	<path id="Vector" d="M135.2 13.09L130.91 13.09L130.91 19.63L135.2 19.63C135.82 19.63 136.35 19.41 136.79 18.97C137.23 18.53 137.45 18 137.45 17.38L137.45 15.34C137.45 14.71 137.23 14.18 136.79 13.74C136.35 13.31 135.82 13.09 135.2 13.09Z" fill="#205BC9" fill-opacity="1.000000" fill-rule="nonzero"/>
	<path id="Vector" d="M58.91 21.88L58.91 19.63L54.61 19.63C53.99 19.63 53.46 19.85 53.02 20.29C52.58 20.73 52.36 21.26 52.36 21.88L52.36 23.93C52.36 24.55 52.58 25.08 53.02 25.52C53.46 25.96 53.99 26.18 54.61 26.18L58.91 26.18L58.91 21.88Z" fill="#205BC9" fill-opacity="1.000000" fill-rule="nonzero"/>
	<path id="Vector" d="M63.2 19.63L58.91 19.63L58.91 26.18L63.2 26.18C63.82 26.18 64.35 25.96 64.79 25.52C65.23 25.08 65.45 24.55 65.45 23.93L65.45 21.88C65.45 21.26 65.23 20.73 64.79 20.29C64.35 19.85 63.82 19.63 63.2 19.63Z" fill="#205BC9" fill-opacity="1.000000" fill-rule="nonzero"/>
	<path id="Vector" d="M78.54 19.63L72 19.63L72 23.93C72 24.55 72.21 25.08 72.66 25.52C73.09 25.96 73.62 26.18 74.25 26.18L78.54 26.18L78.54 19.63Z" fill="#205BC9" fill-opacity="1.000000" fill-rule="nonzero"/>
	<path id="Vector" d="M85.09 19.63L78.54 19.63L78.54 26.18L82.84 26.18C83.46 26.18 83.99 25.96 84.43 25.52C84.87 25.08 85.09 24.55 85.09 23.93L85.09 19.63Z" fill="#205BC9" fill-opacity="1.000000" fill-rule="nonzero"/>
	<path id="Vector" d="M98.18 21.88L98.18 19.63L93.88 19.63C93.26 19.63 92.73 19.85 92.29 20.29C91.85 20.73 91.63 21.26 91.63 21.88L91.63 26.18L98.18 26.18L98.18 21.88Z" fill="#205BC9" fill-opacity="1.000000" fill-rule="nonzero"/>
	<path id="Vector" d="M104.73 21.88C104.73 21.26 104.5 20.73 104.07 20.29C103.63 19.85 103.1 19.63 102.48 19.63L98.18 19.63L98.18 26.18L104.73 26.18L104.73 21.88Z" fill="#205BC9" fill-opacity="1.000000" fill-rule="nonzero"/>
	<path id="Vector" d="M117.82 21.88L117.82 19.63L113.52 19.63C112.9 19.63 112.37 19.85 111.93 20.29C111.49 20.73 111.27 21.26 111.27 21.88L111.27 23.93C111.27 24.55 111.49 25.08 111.93 25.52C112.37 25.96 112.9 26.18 113.52 26.18L117.82 26.18L117.82 21.88Z" fill="#205BC9" fill-opacity="1.000000" fill-rule="nonzero"/>
	<path id="Vector" d="M122.11 19.63L117.82 19.63L117.82 26.18L122.11 26.18C122.73 26.18 123.27 25.96 123.7 25.52C124.14 25.08 124.36 24.55 124.36 23.93L124.36 21.88C124.36 21.26 124.14 20.73 123.7 20.29C123.27 19.85 122.73 19.63 122.11 19.63Z" fill="#205BC9" fill-opacity="1.000000" fill-rule="nonzero"/>
	<path id="Vector" d="M72 28.43C72 27.81 71.78 27.27 71.34 26.84C70.9 26.4 70.37 26.18 69.75 26.18L67.7 26.18C67.08 26.18 66.55 26.4 66.11 26.84C65.67 27.27 65.45 27.81 65.45 28.43L65.45 30.47C65.45 30.51 65.46 30.56 65.46 30.63L65.45 30.63L65.45 32.72L72 32.72L72 30.63L71.98 30.63C72 30.56 72 30.51 72 30.47L72 28.43Z" fill="#205BC9" fill-opacity="1.000000" fill-rule="nonzero"/>
	<path id="Vector" d="M98.18 26.18L91.63 26.18L91.63 30.47C91.63 31.09 91.85 31.63 92.29 32.06C92.73 32.5 93.26 32.72 93.88 32.72L98.18 32.72L98.18 26.18Z" fill="#205BC9" fill-opacity="1.000000" fill-rule="nonzero"/>
	<path id="Vector" d="M98.18 26.18L104.73 26.18L104.73 32.72L98.18 32.72L98.18 26.18Z" fill="#205BC9" fill-opacity="1.000000" fill-rule="evenodd"/>
	<path id="Vector" d="M111.27 28.43C111.27 27.81 111.05 27.27 110.61 26.84C110.17 26.4 109.64 26.18 109.02 26.18L104.72 26.18L104.72 32.72L111.27 32.72L111.27 28.43Z" fill="#205BC9" fill-opacity="1.000000" fill-rule="nonzero"/>
	<path id="Vector" d="M130.91 28.43C130.91 27.81 130.68 27.27 130.25 26.84C129.81 26.4 129.28 26.18 128.66 26.18L126.61 26.18C125.99 26.18 125.46 26.4 125.02 26.84C124.58 27.27 124.36 27.81 124.36 28.43L124.36 30.47C124.36 30.51 124.36 30.56 124.37 30.63L124.36 30.63L124.36 32.72L130.91 32.72L130.91 30.63L130.89 30.63C130.9 30.56 130.91 30.51 130.91 30.47L130.91 28.43Z" fill="#205BC9" fill-opacity="1.000000" fill-rule="nonzero"/>
	<path id="Vector" d="M65.45 32.72L72 32.72L72 39.27L65.45 39.27L65.45 32.72Z" fill="#205BC9" fill-opacity="1.000000" fill-rule="evenodd"/>
	<path id="Vector" d="M85.09 34.97L85.09 32.72L80.79 32.72C80.17 32.72 79.64 32.94 79.2 33.38C78.76 33.82 78.54 34.35 78.54 34.97L78.54 39.27L85.09 39.27L85.09 34.97Z" fill="#205BC9" fill-opacity="1.000000" fill-rule="nonzero"/>
	<path id="Vector" d="M89.39 32.72L85.09 32.72L85.09 39.27L89.39 39.27C90.01 39.27 90.54 39.05 90.98 38.61C91.41 38.17 91.64 37.64 91.64 37.02L91.64 34.97C91.64 34.35 91.41 33.82 90.98 33.38C90.54 32.94 90.01 32.72 89.39 32.72Z" fill="#205BC9" fill-opacity="1.000000" fill-rule="nonzero"/>
	<path id="Vector" d="M104.72 32.72L111.27 32.72L111.27 39.27L104.72 39.27L104.72 32.72Z" fill="#205BC9" fill-opacity="1.000000" fill-rule="evenodd"/>
	<path id="Vector" d="M111.27 32.72L117.82 32.72L117.82 39.27L111.27 39.27L111.27 32.72Z" fill="#205BC9" fill-opacity="1.000000" fill-rule="evenodd"/>
	<path id="Vector" d="M117.82 32.72L124.36 32.72L124.36 39.27L117.82 39.27L117.82 32.72Z" fill="#205BC9" fill-opacity="1.000000" fill-rule="evenodd"/>
	<path id="Vector" d="M130.91 32.72L124.36 32.72L124.36 39.27L128.66 39.27C129.28 39.27 129.81 39.05 130.25 38.61C130.68 38.17 130.91 37.64 130.91 37.02L130.91 32.72Z" fill="#205BC9" fill-opacity="1.000000" fill-rule="nonzero"/>
	<path id="Vector" d="M58.91 41.52C58.91 40.9 58.68 40.37 58.25 39.93C57.81 39.49 57.28 39.27 56.66 39.27L54.61 39.27C53.99 39.27 53.46 39.49 53.02 39.93C52.58 40.37 52.36 40.9 52.36 41.52L52.36 43.56C52.36 43.6 52.36 43.65 52.37 43.72L52.36 43.72L52.36 45.81L58.91 45.81L58.91 43.72L58.89 43.72C58.9 43.65 58.91 43.6 58.91 43.56L58.91 41.52Z" fill="#205BC9" fill-opacity="1.000000" fill-rule="nonzero"/>
	<path id="Vector" d="M71.98 41.36L72 41.36L72 39.27L65.45 39.27L65.45 41.36L65.46 41.36C65.46 41.43 65.45 41.48 65.45 41.52L65.45 43.56C65.45 44.19 65.67 44.72 66.11 45.15C66.55 45.59 67.08 45.81 67.7 45.81L69.75 45.81C70.37 45.81 70.9 45.59 71.34 45.15C71.78 44.72 72 44.19 72 43.56L72 41.52C72 41.48 72 41.43 71.98 41.36Z" fill="#205BC9" fill-opacity="1.000000" fill-rule="nonzero"/>
	<path id="Vector" d="M85.07 41.36L85.09 41.36L85.09 39.27L78.54 39.27L78.54 41.36L78.55 41.36C78.55 41.43 78.54 41.48 78.54 41.52L78.54 43.56C78.54 44.19 78.76 44.72 79.2 45.15C79.64 45.59 80.17 45.81 80.79 45.81L82.84 45.81C83.46 45.81 83.99 45.59 84.43 45.15C84.87 44.72 85.09 44.19 85.09 43.56L85.09 41.52C85.09 41.48 85.08 41.43 85.07 41.36Z" fill="#205BC9" fill-opacity="1.000000" fill-rule="nonzero"/>
	<path id="Vector" d="M98.18 43.56C98.18 44.19 97.96 44.72 97.52 45.15C97.08 45.59 96.55 45.81 95.93 45.81L93.88 45.81C93.26 45.81 92.73 45.59 92.29 45.15C91.85 44.72 91.63 44.19 91.63 43.56L91.63 41.52C91.63 40.9 91.85 40.37 92.29 39.93C92.73 39.49 93.26 39.27 93.88 39.27L95.93 39.27C96.55 39.27 97.08 39.49 97.52 39.93C97.96 40.37 98.18 40.9 98.18 41.52L98.18 43.56Z" fill="#205BC9" fill-opacity="1.000000" fill-rule="nonzero"/>
	<path id="Vector" d="M104.72 39.27L111.27 39.27L111.27 45.81L104.72 45.81L104.72 39.27Z" fill="#205BC9" fill-opacity="1.000000" fill-rule="evenodd"/>
	<path id="Vector" d="M117.82 39.27L124.36 39.27L124.36 45.81L117.82 45.81L117.82 39.27Z" fill="#205BC9" fill-opacity="1.000000" fill-rule="evenodd"/>
	<path id="Vector" d="M137.45 43.56C137.45 44.19 137.23 44.72 136.79 45.15C136.35 45.59 135.82 45.81 135.2 45.81L133.16 45.81C132.53 45.81 132 45.59 131.57 45.15C131.12 44.72 130.91 44.19 130.91 43.56L130.91 41.52C130.91 40.9 131.12 40.37 131.57 39.93C132 39.49 132.53 39.27 133.16 39.27L135.2 39.27C135.82 39.27 136.35 39.49 136.79 39.93C137.23 40.37 137.45 40.9 137.45 41.52L137.45 43.56Z" fill="#205BC9" fill-opacity="1.000000" fill-rule="nonzero"/>
	<path id="Vector" d="M58.89 47.91L58.91 47.91L58.91 45.81L52.36 45.81L52.36 47.91L52.37 47.91C52.36 47.98 52.36 48.03 52.36 48.06L52.36 50.11C52.36 50.73 52.58 51.26 53.02 51.7C53.46 52.14 53.99 52.36 54.61 52.36L56.66 52.36C57.28 52.36 57.81 52.14 58.25 51.7C58.68 51.26 58.91 50.73 58.91 50.11L58.91 48.06C58.91 48.03 58.9 47.98 58.89 47.91Z" fill="#205BC9" fill-opacity="1.000000" fill-rule="nonzero"/>
	<path id="Vector" d="M78.54 48.06C78.54 47.44 78.32 46.91 77.88 46.47C77.44 46.03 76.91 45.81 76.29 45.81L74.25 45.81C73.62 45.81 73.09 46.03 72.66 46.47C72.21 46.91 72 47.44 72 48.06L72 50.11C72 50.14 72 50.19 72.01 50.26L72 50.26L72 52.36L78.54 52.36L78.54 50.26L78.53 50.26C78.54 50.19 78.54 50.14 78.54 50.11L78.54 48.06Z" fill="#205BC9" fill-opacity="1.000000" fill-rule="nonzero"/>
	<path id="Vector" d="M104.73 48.06L104.73 45.81L100.43 45.81C99.81 45.81 99.28 46.03 98.84 46.47C98.4 46.91 98.18 47.44 98.18 48.06L98.18 52.36L104.73 52.36L104.73 48.06Z" fill="#205BC9" fill-opacity="1.000000" fill-rule="nonzero"/>
	<path id="Vector" d="M104.72 45.81L111.27 45.81L111.27 52.36L104.72 52.36L104.72 45.81Z" fill="#205BC9" fill-opacity="1.000000" fill-rule="evenodd"/>
	<path id="Vector" d="M111.27 45.81L117.82 45.81L117.82 52.36L111.27 52.36L111.27 45.81Z" fill="#205BC9" fill-opacity="1.000000" fill-rule="evenodd"/>
	<path id="Vector" d="M117.82 45.81L124.36 45.81L124.36 52.36L117.82 52.36L117.82 45.81Z" fill="#205BC9" fill-opacity="1.000000" fill-rule="evenodd"/>
	<path id="Vector" d="M128.66 45.81L124.36 45.81L124.36 52.36L128.66 52.36C129.28 52.36 129.81 52.14 130.25 51.7C130.68 51.26 130.91 50.73 130.91 50.11L130.91 48.06C130.91 47.44 130.68 46.91 130.25 46.47C129.81 46.03 129.28 45.81 128.66 45.81Z" fill="#205BC9" fill-opacity="1.000000" fill-rule="nonzero"/>
	<path id="Vector" d="M6.54 54.61C6.54 53.99 6.32 53.46 5.88 53.02C5.44 52.58 4.91 52.36 4.29 52.36L2.25 52.36C1.62 52.36 1.09 52.58 0.66 53.02C0.21 53.46 0 53.99 0 54.61L0 56.65C0 56.69 0 56.74 0.01 56.81L0 56.81L0 58.9L6.54 58.9L6.54 56.81L6.53 56.81C6.54 56.74 6.54 56.69 6.54 56.65L6.54 54.61Z" fill="#205BC9" fill-opacity="1.000000" fill-rule="nonzero"/>
	<path id="Vector" d="M19.64 54.61L19.64 52.36L15.34 52.36C14.72 52.36 14.19 52.58 13.75 53.02C13.31 53.46 13.09 53.99 13.09 54.61L13.09 56.65C13.09 57.28 13.31 57.81 13.75 58.25C14.19 58.68 14.72 58.9 15.34 58.9L19.64 58.9L19.64 54.61Z" fill="#205BC9" fill-opacity="1.000000" fill-rule="nonzero"/>
	<path id="Vector" d="M23.93 52.36L19.63 52.36L19.63 58.9L23.93 58.9C24.55 58.9 25.08 58.68 25.52 58.25C25.96 57.81 26.18 57.28 26.18 56.65L26.18 54.61C26.18 53.99 25.96 53.46 25.52 53.02C25.08 52.58 24.55 52.36 23.93 52.36Z" fill="#205BC9" fill-opacity="1.000000" fill-rule="nonzero"/>
	<path id="Vector" d="M39.27 54.61L39.27 52.36L34.97 52.36C34.35 52.36 33.82 52.58 33.38 53.02C32.94 53.46 32.72 53.99 32.72 54.61L32.72 58.9L39.27 58.9L39.27 54.61Z" fill="#205BC9" fill-opacity="1.000000" fill-rule="nonzero"/>
	<path id="Vector" d="M39.27 52.36L45.82 52.36L45.82 58.9L39.27 58.9L39.27 52.36Z" fill="#205BC9" fill-opacity="1.000000" fill-rule="evenodd"/>
	<path id="Vector" d="M50.11 52.36L45.82 52.36L45.82 58.9L50.11 58.9C50.73 58.9 51.26 58.68 51.7 58.25C52.14 57.81 52.36 57.28 52.36 56.65L52.36 54.61C52.36 53.99 52.14 53.46 51.7 53.02C51.26 52.58 50.73 52.36 50.11 52.36Z" fill="#205BC9" fill-opacity="1.000000" fill-rule="nonzero"/>
	<path id="Vector" d="M65.45 56.65C65.45 57.28 65.23 57.81 64.79 58.25C64.35 58.68 63.82 58.9 63.2 58.9L61.16 58.9C60.53 58.9 60 58.68 59.57 58.25C59.12 57.81 58.91 57.28 58.91 56.65L58.91 54.61C58.91 53.99 59.12 53.46 59.57 53.02C60 52.58 60.53 52.36 61.16 52.36L63.2 52.36C63.82 52.36 64.35 52.58 64.79 53.02C65.23 53.46 65.45 53.99 65.45 54.61L65.45 56.65Z" fill="#205BC9" fill-opacity="1.000000" fill-rule="nonzero"/>
	<path id="Vector" d="M78.54 52.36L72 52.36L72 56.65C72 57.28 72.21 57.81 72.66 58.25C73.09 58.68 73.62 58.9 74.25 58.9L78.54 58.9L78.54 52.36Z" fill="#205BC9" fill-opacity="1.000000" fill-rule="nonzero"/>
	<path id="Vector" d="M78.54 52.36L85.09 52.36L85.09 58.9L78.54 58.9L78.54 52.36Z" fill="#205BC9" fill-opacity="1.000000" fill-rule="evenodd"/>
	<path id="Vector" d="M91.64 54.61C91.64 53.99 91.41 53.46 90.98 53.02C90.54 52.58 90.01 52.36 89.39 52.36L85.09 52.36L85.09 58.9L91.64 58.9L91.64 54.61Z" fill="#205BC9" fill-opacity="1.000000" fill-rule="nonzero"/>
	<path id="Vector" d="M104.73 52.36L98.18 52.36L98.18 56.65C98.18 57.28 98.4 57.81 98.84 58.25C99.28 58.68 99.81 58.9 100.43 58.9L104.73 58.9L104.73 52.36Z" fill="#205BC9" fill-opacity="1.000000" fill-rule="nonzero"/>
	<path id="Vector" d="M104.72 52.36L111.27 52.36L111.27 58.9L104.72 58.9L104.72 52.36Z" fill="#205BC9" fill-opacity="1.000000" fill-rule="evenodd"/>
	<path id="Vector" d="M111.27 52.36L117.82 52.36L117.82 58.9L111.27 58.9L111.27 52.36Z" fill="#205BC9" fill-opacity="1.000000" fill-rule="evenodd"/>
	<path id="Vector" d="M117.82 52.36L124.36 52.36L124.36 58.9L117.82 58.9L117.82 52.36Z" fill="#205BC9" fill-opacity="1.000000" fill-rule="evenodd"/>
	<path id="Vector" d="M150.54 54.61C150.54 53.99 150.32 53.46 149.88 53.02C149.44 52.58 148.91 52.36 148.29 52.36L146.25 52.36C145.62 52.36 145.09 52.58 144.66 53.02C144.21 53.46 144 53.99 144 54.61L144 56.65C144 56.69 144 56.74 144.01 56.81L144 56.81L144 58.9L150.54 58.9L150.54 56.81L150.53 56.81C150.54 56.74 150.54 56.69 150.54 56.65L150.54 54.61Z" fill="#205BC9" fill-opacity="1.000000" fill-rule="nonzero"/>
	<path id="Vector" d="M170.18 56.65C170.18 57.28 169.96 57.81 169.52 58.25C169.08 58.68 168.55 58.9 167.93 58.9L165.88 58.9C165.26 58.9 164.73 58.68 164.29 58.25C163.85 57.81 163.63 57.28 163.63 56.65L163.63 54.61C163.63 53.99 163.85 53.46 164.29 53.02C164.73 52.58 165.26 52.36 165.88 52.36L167.93 52.36C168.55 52.36 169.08 52.58 169.52 53.02C169.96 53.46 170.18 53.99 170.18 54.61L170.18 56.65Z" fill="#205BC9" fill-opacity="1.000000" fill-rule="nonzero"/>
	<path id="Vector" d="M183.27 54.61L183.27 52.36L178.97 52.36C178.35 52.36 177.82 52.58 177.38 53.02C176.94 53.46 176.72 53.99 176.72 54.61L176.72 56.65C176.72 57.28 176.94 57.81 177.38 58.25C177.82 58.68 178.35 58.9 178.97 58.9L183.27 58.9L183.27 54.61Z" fill="#205BC9" fill-opacity="1.000000" fill-rule="nonzero"/>
	<path id="Vector" d="M189.82 54.61C189.82 53.99 189.59 53.46 189.16 53.02C188.72 52.58 188.19 52.36 187.57 52.36L183.27 52.36L183.27 58.9L189.82 58.9L189.82 54.61Z" fill="#205BC9" fill-opacity="1.000000" fill-rule="nonzero"/>
	<path id="Vector" d="M0 58.9L6.54 58.9L6.54 65.45L0 65.45L0 58.9Z" fill="#205BC9" fill-opacity="1.000000" fill-rule="evenodd"/>
	<path id="Vector" d="M10.84 58.9L6.54 58.9L6.54 65.45L10.84 65.45C11.46 65.45 11.99 65.23 12.43 64.79C12.87 64.35 13.09 63.82 13.09 63.2L13.09 61.15C13.09 60.53 12.87 60 12.43 59.56C11.99 59.12 11.46 58.9 10.84 58.9Z" fill="#205BC9" fill-opacity="1.000000" fill-rule="nonzero"/>
	<path id="Vector" d="M39.25 61L39.27 61L39.27 58.9L32.72 58.9L32.72 61L32.73 61C32.73 61.07 32.72 61.12 32.72 61.15L32.72 63.2C32.72 63.82 32.94 64.35 33.38 64.79C33.82 65.23 34.35 65.45 34.97 65.45L37.02 65.45C37.64 65.45 38.17 65.23 38.61 64.79C39.05 64.35 39.27 63.82 39.27 63.2L39.27 61.15C39.27 61.12 39.26 61.07 39.25 61Z" fill="#205BC9" fill-opacity="1.000000" fill-rule="nonzero"/>
	<path id="Vector" d="M58.91 63.2C58.91 63.82 58.68 64.35 58.25 64.79C57.81 65.23 57.28 65.45 56.66 65.45L54.61 65.45C53.99 65.45 53.46 65.23 53.02 64.79C52.58 64.35 52.36 63.82 52.36 63.2L52.36 61.15C52.36 60.53 52.58 60 53.02 59.56C53.46 59.12 53.99 58.9 54.61 58.9L56.66 58.9C57.28 58.9 57.81 59.12 58.25 59.56C58.68 60 58.91 60.53 58.91 61.15L58.91 63.2Z" fill="#205BC9" fill-opacity="1.000000" fill-rule="nonzero"/>
	<path id="Vector" d="M72 61.15C72 60.53 71.78 60 71.34 59.56C70.9 59.12 70.37 58.9 69.75 58.9L67.7 58.9C67.08 58.9 66.55 59.12 66.11 59.56C65.67 60 65.45 60.53 65.45 61.15L65.45 63.2C65.45 63.23 65.46 63.29 65.46 63.35L65.45 63.35L65.45 65.45L72 65.45L72 63.35L71.98 63.35C72 63.29 72 63.23 72 63.2L72 61.15Z" fill="#205BC9" fill-opacity="1.000000" fill-rule="nonzero"/>
	<path id="Vector" d="M78.54 58.9L85.09 58.9L85.09 65.45L78.54 65.45L78.54 58.9Z" fill="#205BC9" fill-opacity="1.000000" fill-rule="evenodd"/>
	<path id="Vector" d="M85.09 58.9L91.64 58.9L91.64 65.45L85.09 65.45L85.09 58.9Z" fill="#205BC9" fill-opacity="1.000000" fill-rule="evenodd"/>
	<path id="Vector" d="M95.93 58.9L91.63 58.9L91.63 65.45L95.93 65.45C96.55 65.45 97.08 65.23 97.52 64.79C97.96 64.35 98.18 63.82 98.18 63.2L98.18 61.15C98.18 60.53 97.96 60 97.52 59.56C97.08 59.12 96.55 58.9 95.93 58.9Z" fill="#205BC9" fill-opacity="1.000000" fill-rule="nonzero"/>
	<path id="Vector" d="M111.25 61L111.27 61L111.27 58.9L104.72 58.9L104.72 61L104.73 61C104.73 61.07 104.72 61.12 104.72 61.15L104.72 63.2C104.72 63.82 104.94 64.35 105.38 64.79C105.82 65.23 106.35 65.45 106.97 65.45L109.02 65.45C109.64 65.45 110.17 65.23 110.61 64.79C111.05 64.35 111.27 63.82 111.27 63.2L111.27 61.15C111.27 61.12 111.27 61.07 111.25 61Z" fill="#205BC9" fill-opacity="1.000000" fill-rule="nonzero"/>
	<path id="Vector" d="M117.82 58.9L124.36 58.9L124.36 65.45L117.82 65.45L117.82 58.9Z" fill="#205BC9" fill-opacity="1.000000" fill-rule="evenodd"/>
	<path id="Vector" d="M124.36 58.9L130.91 58.9L130.91 65.45L124.36 65.45L124.36 58.9Z" fill="#205BC9" fill-opacity="1.000000" fill-rule="evenodd"/>
	<path id="Vector" d="M130.91 58.9L137.45 58.9L137.45 65.45L130.91 65.45L130.91 58.9Z" fill="#205BC9" fill-opacity="1.000000" fill-rule="evenodd"/>
	<path id="Vector" d="M137.45 58.9L144 58.9L144 65.45L137.45 65.45L137.45 58.9Z" fill="#205BC9" fill-opacity="1.000000" fill-rule="evenodd"/>
	<path id="Vector" d="M144 58.9L150.54 58.9L150.54 65.45L144 65.45L144 58.9Z" fill="#205BC9" fill-opacity="1.000000" fill-rule="evenodd"/>
	<path id="Vector" d="M150.54 58.9L157.09 58.9L157.09 65.45L150.54 65.45L150.54 58.9Z" fill="#205BC9" fill-opacity="1.000000" fill-rule="evenodd"/>
	<path id="Vector" d="M163.64 61.15C163.64 60.53 163.41 60 162.98 59.56C162.54 59.12 162.01 58.9 161.39 58.9L157.09 58.9L157.09 65.45L163.64 65.45L163.64 61.15Z" fill="#205BC9" fill-opacity="1.000000" fill-rule="nonzero"/>
	<path id="Vector" d="M189.8 61L189.82 61L189.82 58.9L183.27 58.9L183.27 61L183.28 61C183.27 61.07 183.27 61.12 183.27 61.15L183.27 63.2C183.27 63.82 183.49 64.35 183.93 64.79C184.37 65.23 184.9 65.45 185.52 65.45L187.57 65.45C188.19 65.45 188.72 65.23 189.16 64.79C189.59 64.35 189.82 63.82 189.82 63.2L189.82 61.15C189.82 61.12 189.81 61.07 189.8 61Z" fill="#205BC9" fill-opacity="1.000000" fill-rule="nonzero"/>
	<path id="Vector" d="M0 65.45L6.54 65.45L6.54 72L0 72L0 65.45Z" fill="#205BC9" fill-opacity="1.000000" fill-rule="evenodd"/>
	<path id="Vector" d="M26.18 67.7C26.18 67.08 25.96 66.55 25.52 66.11C25.08 65.67 24.55 65.45 23.93 65.45L21.88 65.45C21.26 65.45 20.73 65.67 20.29 66.11C19.85 66.55 19.63 67.08 19.63 67.7L19.63 69.75C19.63 69.78 19.64 69.83 19.64 69.9L19.63 69.9L19.63 72L26.18 72L26.18 69.9L26.16 69.9C26.17 69.83 26.18 69.78 26.18 69.75L26.18 67.7Z" fill="#205BC9" fill-opacity="1.000000" fill-rule="nonzero"/>
	<path id="Vector" d="M45.82 69.75C45.82 70.37 45.59 70.9 45.16 71.34C44.72 71.78 44.19 72 43.57 72L41.52 72C40.9 72 40.37 71.78 39.93 71.34C39.49 70.9 39.27 70.37 39.27 69.75L39.27 67.7C39.27 67.08 39.49 66.55 39.93 66.11C40.37 65.67 40.9 65.45 41.52 65.45L43.57 65.45C44.19 65.45 44.72 65.67 45.16 66.11C45.59 66.55 45.82 67.08 45.82 67.7L45.82 69.75Z" fill="#205BC9" fill-opacity="1.000000" fill-rule="nonzero"/>
	<path id="Vector" d="M65.45 65.45L72 65.45L72 72L65.45 72L65.45 65.45Z" fill="#205BC9" fill-opacity="1.000000" fill-rule="evenodd"/>
	<path id="Vector" d="M72 65.45L78.54 65.45L78.54 72L72 72L72 65.45Z" fill="#205BC9" fill-opacity="1.000000" fill-rule="evenodd"/>
	<path id="Vector" d="M78.54 65.45L85.09 65.45L85.09 72L78.54 72L78.54 65.45Z" fill="#205BC9" fill-opacity="1.000000" fill-rule="evenodd"/>
	<path id="Vector" d="M91.64 65.45L85.09 65.45L85.09 72L89.39 72C90.01 72 90.54 71.78 90.98 71.34C91.41 70.9 91.64 70.37 91.64 69.75L91.64 65.45Z" fill="#205BC9" fill-opacity="1.000000" fill-rule="nonzero"/>
	<path id="Vector" d="M117.82 67.7L117.82 65.45L113.52 65.45C112.9 65.45 112.37 65.67 111.93 66.11C111.49 66.55 111.27 67.08 111.27 67.7L111.27 69.75C111.27 70.37 111.49 70.9 111.93 71.34C112.37 71.78 112.9 72 113.52 72L117.82 72L117.82 67.7Z" fill="#205BC9" fill-opacity="1.000000" fill-rule="nonzero"/>
	<path id="Vector" d="M117.82 65.45L124.36 65.45L124.36 72L117.82 72L117.82 65.45Z" fill="#205BC9" fill-opacity="1.000000" fill-rule="evenodd"/>
	<path id="Vector" d="M130.91 65.45L137.45 65.45L137.45 72L130.91 72L130.91 65.45Z" fill="#205BC9" fill-opacity="1.000000" fill-rule="evenodd"/>
	<path id="Vector" d="M150.54 65.45L157.09 65.45L157.09 72L150.54 72L150.54 65.45Z" fill="#205BC9" fill-opacity="1.000000" fill-rule="evenodd"/>
	<path id="Vector" d="M157.09 65.45L163.64 65.45L163.64 72L157.09 72L157.09 65.45Z" fill="#205BC9" fill-opacity="1.000000" fill-rule="evenodd"/>
	<path id="Vector" d="M176.73 67.7L176.73 65.45L172.43 65.45C171.81 65.45 171.28 65.67 170.84 66.11C170.4 66.55 170.18 67.08 170.18 67.7L170.18 69.75C170.18 70.37 170.4 70.9 170.84 71.34C171.28 71.78 171.81 72 172.43 72L176.73 72L176.73 67.7Z" fill="#205BC9" fill-opacity="1.000000" fill-rule="nonzero"/>
	<path id="Vector" d="M181.02 65.45L176.72 65.45L176.72 72L181.02 72C181.64 72 182.17 71.78 182.61 71.34C183.05 70.9 183.27 70.37 183.27 69.75L183.27 67.7C183.27 67.08 183.05 66.55 182.61 66.11C182.17 65.67 181.64 65.45 181.02 65.45Z" fill="#205BC9" fill-opacity="1.000000" fill-rule="nonzero"/>
	<path id="Vector" d="M6.54 72L0 72L0 76.29C0 76.91 0.21 77.44 0.66 77.88C1.09 78.32 1.62 78.54 2.25 78.54L6.54 78.54L6.54 72Z" fill="#205BC9" fill-opacity="1.000000" fill-rule="nonzero"/>
	<path id="Vector" d="M6.54 72L13.09 72L13.09 78.54L6.54 78.54L6.54 72Z" fill="#205BC9" fill-opacity="1.000000" fill-rule="evenodd"/>
	<path id="Vector" d="M13.09 72L19.64 72L19.64 78.54L13.09 78.54L13.09 72Z" fill="#205BC9" fill-opacity="1.000000" fill-rule="evenodd"/>
	<path id="Vector" d="M26.18 72L19.63 72L19.63 78.54L23.93 78.54C24.55 78.54 25.08 78.32 25.52 77.88C25.96 77.44 26.18 76.91 26.18 76.29L26.18 72Z" fill="#205BC9" fill-opacity="1.000000" fill-rule="nonzero"/>
	<path id="Vector" d="M52.36 74.25C52.36 73.62 52.14 73.09 51.7 72.65C51.26 72.21 50.73 72 50.11 72L48.07 72C47.44 72 46.91 72.21 46.48 72.65C46.03 73.09 45.82 73.62 45.82 74.25L45.82 76.29C45.82 76.32 45.82 76.38 45.83 76.44L45.82 76.44L45.82 78.54L52.36 78.54L52.36 76.44L52.35 76.44C52.36 76.38 52.36 76.32 52.36 76.29L52.36 74.25Z" fill="#205BC9" fill-opacity="1.000000" fill-rule="nonzero"/>
	<path id="Vector" d="M65.45 72L72 72L72 78.54L65.45 78.54L65.45 72Z" fill="#205BC9" fill-opacity="1.000000" fill-rule="evenodd"/>
	<path id="Vector" d="M104.73 74.25C104.73 73.62 104.5 73.09 104.07 72.65C103.63 72.21 103.1 72 102.48 72L100.43 72C99.81 72 99.28 72.21 98.84 72.65C98.4 73.09 98.18 73.62 98.18 74.25L98.18 76.29C98.18 76.32 98.18 76.38 98.19 76.44L98.18 76.44L98.18 78.54L104.73 78.54L104.73 76.44L104.71 76.44C104.72 76.38 104.73 76.32 104.73 76.29L104.73 74.25Z" fill="#205BC9" fill-opacity="1.000000" fill-rule="nonzero"/>
	<path id="Vector" d="M124.35 74.09L124.36 74.09L124.36 72L117.82 72L117.82 74.09L117.83 74.09C117.82 74.16 117.82 74.21 117.82 74.25L117.82 76.29C117.82 76.91 118.03 77.44 118.48 77.88C118.91 78.32 119.44 78.54 120.07 78.54L122.11 78.54C122.73 78.54 123.27 78.32 123.7 77.88C124.14 77.44 124.36 76.91 124.36 76.29L124.36 74.25C124.36 74.21 124.36 74.16 124.35 74.09Z" fill="#205BC9" fill-opacity="1.000000" fill-rule="nonzero"/>
	<path id="Vector" d="M137.44 74.09L137.45 74.09L137.45 72L130.91 72L130.91 74.09L130.92 74.09C130.91 74.16 130.91 74.21 130.91 74.25L130.91 76.29C130.91 76.91 131.12 77.44 131.57 77.88C132 78.32 132.53 78.54 133.16 78.54L135.2 78.54C135.82 78.54 136.35 78.32 136.79 77.88C137.23 77.44 137.45 76.91 137.45 76.29L137.45 74.25C137.45 74.21 137.45 74.16 137.44 74.09Z" fill="#205BC9" fill-opacity="1.000000" fill-rule="nonzero"/>
	<path id="Vector" d="M157.09 72L150.54 72L150.54 76.29C150.54 76.91 150.76 77.44 151.2 77.88C151.64 78.32 152.17 78.54 152.79 78.54L157.09 78.54L157.09 72Z" fill="#205BC9" fill-opacity="1.000000" fill-rule="nonzero"/>
	<path id="Vector" d="M163.64 72L157.09 72L157.09 78.54L161.39 78.54C162.01 78.54 162.54 78.32 162.98 77.88C163.41 77.44 163.64 76.91 163.64 76.29L163.64 72Z" fill="#205BC9" fill-opacity="1.000000" fill-rule="nonzero"/>
	<path id="Vector" d="M189.82 76.29C189.82 76.91 189.59 77.44 189.16 77.88C188.72 78.32 188.19 78.54 187.57 78.54L185.52 78.54C184.9 78.54 184.37 78.32 183.93 77.88C183.49 77.44 183.27 76.91 183.27 76.29L183.27 74.25C183.27 73.62 183.49 73.09 183.93 72.65C184.37 72.21 184.9 72 185.52 72L187.57 72C188.19 72 188.72 72.21 189.16 72.65C189.59 73.09 189.82 73.62 189.82 74.25L189.82 76.29Z" fill="#205BC9" fill-opacity="1.000000" fill-rule="nonzero"/>
	<path id="Vector" d="M32.73 82.84C32.73 83.46 32.5 83.99 32.07 84.43C31.63 84.87 31.1 85.09 30.48 85.09L28.43 85.09C27.81 85.09 27.28 84.87 26.84 84.43C26.4 83.99 26.18 83.46 26.18 82.84L26.18 80.79C26.18 80.17 26.4 79.64 26.84 79.2C27.28 78.76 27.81 78.54 28.43 78.54L30.48 78.54C31.1 78.54 31.63 78.76 32.07 79.2C32.5 79.64 32.73 80.17 32.73 80.79L32.73 82.84Z" fill="#205BC9" fill-opacity="1.000000" fill-rule="nonzero"/>
	<path id="Vector" d="M45.82 80.79L45.82 78.54L41.52 78.54C40.9 78.54 40.37 78.76 39.93 79.2C39.49 79.64 39.27 80.17 39.27 80.79L39.27 82.84C39.27 83.46 39.49 83.99 39.93 84.43C40.37 84.87 40.9 85.09 41.52 85.09L45.82 85.09L45.82 80.79Z" fill="#205BC9" fill-opacity="1.000000" fill-rule="nonzero"/>
	<path id="Vector" d="M52.36 78.54L45.82 78.54L45.82 85.09L50.11 85.09C50.73 85.09 51.26 84.87 51.7 84.43C52.14 83.99 52.36 83.46 52.36 82.84L52.36 78.54Z" fill="#205BC9" fill-opacity="1.000000" fill-rule="nonzero"/>
	<path id="Vector" d="M72 78.54L65.45 78.54L65.45 82.84C65.45 83.46 65.67 83.99 66.11 84.43C66.55 84.87 67.08 85.09 67.7 85.09L72 85.09L72 78.54Z" fill="#205BC9" fill-opacity="1.000000" fill-rule="nonzero"/>
	<path id="Vector" d="M76.29 78.54L72 78.54L72 85.09L76.29 85.09C76.91 85.09 77.44 84.87 77.88 84.43C78.32 83.99 78.54 83.46 78.54 82.84L78.54 80.79C78.54 80.17 78.32 79.64 77.88 79.2C77.44 78.76 76.91 78.54 76.29 78.54Z" fill="#205BC9" fill-opacity="1.000000" fill-rule="nonzero"/>
	<path id="Vector" d="M98.18 80.79L98.18 78.54L93.88 78.54C93.26 78.54 92.73 78.76 92.29 79.2C91.85 79.64 91.63 80.17 91.63 80.79L91.63 85.09L98.18 85.09L98.18 80.79Z" fill="#205BC9" fill-opacity="1.000000" fill-rule="nonzero"/>
	<path id="Vector" d="M98.18 78.54L104.73 78.54L104.73 85.09L98.18 85.09L98.18 78.54Z" fill="#205BC9" fill-opacity="1.000000" fill-rule="evenodd"/>
	<path id="Vector" d="M104.72 78.54L111.27 78.54L111.27 85.09L104.72 85.09L104.72 78.54Z" fill="#205BC9" fill-opacity="1.000000" fill-rule="evenodd"/>
	<path id="Vector" d="M115.57 78.54L111.27 78.54L111.27 85.09L115.57 85.09C116.19 85.09 116.72 84.87 117.16 84.43C117.59 83.99 117.82 83.46 117.82 82.84L117.82 80.79C117.82 80.17 117.59 79.64 117.16 79.2C116.72 78.76 116.19 78.54 115.57 78.54Z" fill="#205BC9" fill-opacity="1.000000" fill-rule="nonzero"/>
	<path id="Vector" d="M130.91 80.79C130.91 80.17 130.68 79.64 130.25 79.2C129.81 78.76 129.28 78.54 128.66 78.54L126.61 78.54C125.99 78.54 125.46 78.76 125.02 79.2C124.58 79.64 124.36 80.17 124.36 80.79L124.36 82.84C124.36 82.87 124.36 82.92 124.37 82.99L124.36 82.99L124.36 85.09L130.91 85.09L130.91 82.99L130.89 82.99C130.9 82.92 130.91 82.87 130.91 82.84L130.91 80.79Z" fill="#205BC9" fill-opacity="1.000000" fill-rule="nonzero"/>
	<path id="Vector" d="M170.18 80.79L170.18 78.54L165.88 78.54C165.26 78.54 164.73 78.76 164.29 79.2C163.85 79.64 163.63 80.17 163.63 80.79L163.63 82.84C163.63 83.46 163.85 83.99 164.29 84.43C164.73 84.87 165.26 85.09 165.88 85.09L170.18 85.09L170.18 80.79Z" fill="#205BC9" fill-opacity="1.000000" fill-rule="nonzero"/>
	<path id="Vector" d="M176.73 80.79C176.73 80.17 176.5 79.64 176.07 79.2C175.63 78.76 175.1 78.54 174.48 78.54L170.18 78.54L170.18 85.09L176.73 85.09L176.73 80.79Z" fill="#205BC9" fill-opacity="1.000000" fill-rule="nonzero"/>
	<path id="Vector" d="M6.54 87.34L6.54 85.09L2.25 85.09C1.62 85.09 1.09 85.31 0.66 85.74C0.21 86.18 0 86.71 0 87.34L0 91.63L6.54 91.63L6.54 87.34Z" fill="#205BC9" fill-opacity="1.000000" fill-rule="nonzero"/>
	<path id="Vector" d="M10.84 85.09L6.54 85.09L6.54 91.63L10.84 91.63C11.46 91.63 11.99 91.41 12.43 90.97C12.87 90.53 13.09 90 13.09 89.38L13.09 87.34C13.09 86.71 12.87 86.18 12.43 85.74C11.99 85.31 11.46 85.09 10.84 85.09Z" fill="#205BC9" fill-opacity="1.000000" fill-rule="nonzero"/>
	<path id="Vector" d="M26.18 87.34C26.18 86.71 25.96 86.18 25.52 85.74C25.08 85.31 24.55 85.09 23.93 85.09L21.88 85.09C21.26 85.09 20.73 85.31 20.29 85.74C19.85 86.18 19.63 86.71 19.63 87.34L19.63 89.38C19.63 89.42 19.64 89.47 19.64 89.53L19.63 89.53L19.63 91.63L26.18 91.63L26.18 89.53L26.16 89.53C26.17 89.47 26.18 89.42 26.18 89.38L26.18 87.34Z" fill="#205BC9" fill-opacity="1.000000" fill-rule="nonzero"/>
	<path id="Vector" d="M58.91 87.34L58.91 85.09L54.61 85.09C53.99 85.09 53.46 85.31 53.02 85.74C52.58 86.18 52.36 86.71 52.36 87.34L52.36 91.63L58.91 91.63L58.91 87.34Z" fill="#205BC9" fill-opacity="1.000000" fill-rule="nonzero"/>
	<path id="Vector" d="M65.45 87.34C65.45 86.71 65.23 86.18 64.79 85.74C64.35 85.31 63.82 85.09 63.2 85.09L58.91 85.09L58.91 91.63L65.45 91.63L65.45 87.34Z" fill="#205BC9" fill-opacity="1.000000" fill-rule="nonzero"/>
	<path id="Vector" d="M98.18 85.09L91.63 85.09L91.63 89.38C91.63 90 91.85 90.53 92.29 90.97C92.73 91.41 93.26 91.63 93.88 91.63L98.18 91.63L98.18 85.09Z" fill="#205BC9" fill-opacity="1.000000" fill-rule="nonzero"/>
	<path id="Vector" d="M98.18 85.09L104.73 85.09L104.73 91.63L98.18 91.63L98.18 85.09Z" fill="#205BC9" fill-opacity="1.000000" fill-rule="evenodd"/>
	<path id="Vector" d="M111.27 85.09L104.72 85.09L104.72 91.63L109.02 91.63C109.64 91.63 110.17 91.41 110.61 90.97C111.05 90.53 111.27 90 111.27 89.38L111.27 85.09Z" fill="#205BC9" fill-opacity="1.000000" fill-rule="nonzero"/>
	<path id="Vector" d="M124.36 85.09L130.91 85.09L130.91 91.63L124.36 91.63L124.36 85.09Z" fill="#205BC9" fill-opacity="1.000000" fill-rule="evenodd"/>
	<path id="Vector" d="M137.45 87.34C137.45 86.71 137.23 86.18 136.79 85.74C136.35 85.31 135.82 85.09 135.2 85.09L130.91 85.09L130.91 91.63L137.45 91.63L137.45 87.34Z" fill="#205BC9" fill-opacity="1.000000" fill-rule="nonzero"/>
	<path id="Vector" d="M150.54 87.34L150.54 85.09L146.25 85.09C145.62 85.09 145.09 85.31 144.66 85.74C144.21 86.18 144 86.71 144 87.34L144 91.63L150.54 91.63L150.54 87.34Z" fill="#205BC9" fill-opacity="1.000000" fill-rule="nonzero"/>
	<path id="Vector" d="M157.09 87.34C157.09 86.71 156.87 86.18 156.43 85.74C155.99 85.31 155.46 85.09 154.84 85.09L150.54 85.09L150.54 91.63L157.09 91.63L157.09 87.34Z" fill="#205BC9" fill-opacity="1.000000" fill-rule="nonzero"/>
	<path id="Vector" d="M170.18 85.09L176.73 85.09L176.73 91.63L170.18 91.63L170.18 85.09Z" fill="#205BC9" fill-opacity="1.000000" fill-rule="evenodd"/>
	<path id="Vector" d="M176.72 85.09L183.27 85.09L183.27 91.63L176.72 91.63L176.72 85.09Z" fill="#205BC9" fill-opacity="1.000000" fill-rule="evenodd"/>
	<path id="Vector" d="M189.82 87.34C189.82 86.71 189.59 86.18 189.16 85.74C188.72 85.31 188.19 85.09 187.57 85.09L183.27 85.09L183.27 91.63L189.82 91.63L189.82 87.34Z" fill="#205BC9" fill-opacity="1.000000" fill-rule="nonzero"/>
	<path id="Vector" d="M0 91.63L6.54 91.63L6.54 98.18L0 98.18L0 91.63Z" fill="#205BC9" fill-opacity="1.000000" fill-rule="evenodd"/>
	<path id="Vector" d="M19.64 93.88L19.64 91.63L15.34 91.63C14.72 91.63 14.19 91.85 13.75 92.29C13.31 92.73 13.09 93.26 13.09 93.88L13.09 98.18L19.64 98.18L19.64 93.88Z" fill="#205BC9" fill-opacity="1.000000" fill-rule="nonzero"/>
	<path id="Vector" d="M19.63 91.63L26.18 91.63L26.18 98.18L19.63 98.18L19.63 91.63Z" fill="#205BC9" fill-opacity="1.000000" fill-rule="evenodd"/>
	<path id="Vector" d="M45.82 93.88L45.82 91.63L41.52 91.63C40.9 91.63 40.37 91.85 39.93 92.29C39.49 92.73 39.27 93.26 39.27 93.88L39.27 95.93C39.27 96.55 39.49 97.08 39.93 97.52C40.37 97.96 40.9 98.18 41.52 98.18L45.82 98.18L45.82 93.88Z" fill="#205BC9" fill-opacity="1.000000" fill-rule="nonzero"/>
	<path id="Vector" d="M45.82 91.63L52.36 91.63L52.36 98.18L45.82 98.18L45.82 91.63Z" fill="#205BC9" fill-opacity="1.000000" fill-rule="evenodd"/>
	<path id="Vector" d="M52.36 91.63L58.91 91.63L58.91 98.18L52.36 98.18L52.36 91.63Z" fill="#205BC9" fill-opacity="1.000000" fill-rule="evenodd"/>
	<path id="Vector" d="M58.91 91.63L65.45 91.63L65.45 98.18L58.91 98.18L58.91 91.63Z" fill="#205BC9" fill-opacity="1.000000" fill-rule="evenodd"/>
	<path id="Vector" d="M65.45 91.63L72 91.63L72 98.18L65.45 98.18L65.45 91.63Z" fill="#205BC9" fill-opacity="1.000000" fill-rule="evenodd"/>
	<path id="Vector" d="M76.29 91.63L72 91.63L72 98.18L76.29 98.18C76.91 98.18 77.44 97.96 77.88 97.52C78.32 97.08 78.54 96.55 78.54 95.93L78.54 93.88C78.54 93.26 78.32 92.73 77.88 92.29C77.44 91.85 76.91 91.63 76.29 91.63Z" fill="#205BC9" fill-opacity="1.000000" fill-rule="nonzero"/>
	<path id="Vector" d="M91.64 95.93C91.64 96.55 91.41 97.08 90.98 97.52C90.54 97.96 90.01 98.18 89.39 98.18L87.34 98.18C86.72 98.18 86.19 97.96 85.75 97.52C85.31 97.08 85.09 96.55 85.09 95.93L85.09 93.88C85.09 93.26 85.31 92.73 85.75 92.29C86.19 91.85 86.72 91.63 87.34 91.63L89.39 91.63C90.01 91.63 90.54 91.85 90.98 92.29C91.41 92.73 91.64 93.26 91.64 93.88L91.64 95.93Z" fill="#205BC9" fill-opacity="1.000000" fill-rule="nonzero"/>
	<path id="Vector" d="M124.36 93.88L124.36 91.63L120.07 91.63C119.44 91.63 118.91 91.85 118.48 92.29C118.03 92.73 117.82 93.26 117.82 93.88L117.82 98.18L124.36 98.18L124.36 93.88Z" fill="#205BC9" fill-opacity="1.000000" fill-rule="nonzero"/>
	<path id="Vector" d="M124.36 91.63L130.91 91.63L130.91 98.18L124.36 98.18L124.36 91.63Z" fill="#205BC9" fill-opacity="1.000000" fill-rule="evenodd"/>
	<path id="Vector" d="M130.91 91.63L137.45 91.63L137.45 98.18L130.91 98.18L130.91 91.63Z" fill="#205BC9" fill-opacity="1.000000" fill-rule="evenodd"/>
	<path id="Vector" d="M137.45 91.63L144 91.63L144 98.18L137.45 98.18L137.45 91.63Z" fill="#205BC9" fill-opacity="1.000000" fill-rule="evenodd"/>
	<path id="Vector" d="M144 91.63L150.54 91.63L150.54 98.18L144 98.18L144 91.63Z" fill="#205BC9" fill-opacity="1.000000" fill-rule="evenodd"/>
	<path id="Vector" d="M150.54 91.63L157.09 91.63L157.09 98.18L150.54 98.18L150.54 91.63Z" fill="#205BC9" fill-opacity="1.000000" fill-rule="evenodd"/>
	<path id="Vector" d="M163.64 93.88C163.64 93.26 163.41 92.73 162.98 92.29C162.54 91.85 162.01 91.63 161.39 91.63L157.09 91.63L157.09 98.18L163.64 98.18L163.64 93.88Z" fill="#205BC9" fill-opacity="1.000000" fill-rule="nonzero"/>
	<path id="Vector" d="M176.73 91.63L170.18 91.63L170.18 95.93C170.18 96.55 170.4 97.08 170.84 97.52C171.28 97.96 171.81 98.18 172.43 98.18L176.73 98.18L176.73 91.63Z" fill="#205BC9" fill-opacity="1.000000" fill-rule="nonzero"/>
	<path id="Vector" d="M176.72 91.63L183.27 91.63L183.27 98.18L176.72 98.18L176.72 91.63Z" fill="#205BC9" fill-opacity="1.000000" fill-rule="evenodd"/>
	<path id="Vector" d="M189.82 91.63L183.27 91.63L183.27 98.18L187.57 98.18C188.19 98.18 188.72 97.96 189.16 97.52C189.59 97.08 189.82 96.55 189.82 95.93L189.82 91.63Z" fill="#205BC9" fill-opacity="1.000000" fill-rule="nonzero"/>
	<path id="Vector" d="M6.54 98.18L0 98.18L0 102.47C0 103.09 0.21 103.63 0.66 104.06C1.09 104.5 1.62 104.72 2.25 104.72L6.54 104.72L6.54 98.18Z" fill="#205BC9" fill-opacity="1.000000" fill-rule="nonzero"/>
	<path id="Vector" d="M6.54 98.18L13.09 98.18L13.09 104.72L6.54 104.72L6.54 98.18Z" fill="#205BC9" fill-opacity="1.000000" fill-rule="evenodd"/>
	<path id="Vector" d="M13.09 98.18L19.64 98.18L19.64 104.72L13.09 104.72L13.09 98.18Z" fill="#205BC9" fill-opacity="1.000000" fill-rule="evenodd"/>
	<path id="Vector" d="M19.63 98.18L26.18 98.18L26.18 104.72L19.63 104.72L19.63 98.18Z" fill="#205BC9" fill-opacity="1.000000" fill-rule="evenodd"/>
	<path id="Vector" d="M26.18 98.18L32.73 98.18L32.73 104.72L26.18 104.72L26.18 98.18Z" fill="#205BC9" fill-opacity="1.000000" fill-rule="evenodd"/>
	<path id="Vector" d="M39.27 100.43C39.27 99.8 39.05 99.27 38.61 98.84C38.17 98.4 37.64 98.18 37.02 98.18L32.72 98.18L32.72 104.72L39.27 104.72L39.27 100.43Z" fill="#205BC9" fill-opacity="1.000000" fill-rule="nonzero"/>
	<path id="Vector" d="M58.91 98.18L65.45 98.18L65.45 104.72L58.91 104.72L58.91 98.18Z" fill="#205BC9" fill-opacity="1.000000" fill-rule="evenodd"/>
	<path id="Vector" d="M65.45 98.18L72 98.18L72 104.72L65.45 104.72L65.45 98.18Z" fill="#205BC9" fill-opacity="1.000000" fill-rule="evenodd"/>
	<path id="Vector" d="M98.18 100.43C98.18 99.8 97.96 99.27 97.52 98.84C97.08 98.4 96.55 98.18 95.93 98.18L93.88 98.18C93.26 98.18 92.73 98.4 92.29 98.84C91.85 99.27 91.63 99.8 91.63 100.43L91.63 102.47C91.63 102.51 91.64 102.56 91.64 102.63L91.63 102.63L91.63 104.72L98.18 104.72L98.18 102.63L98.16 102.63C98.17 102.56 98.18 102.51 98.18 102.47L98.18 100.43Z" fill="#205BC9" fill-opacity="1.000000" fill-rule="nonzero"/>
	<path id="Vector" d="M111.27 102.47C111.27 103.09 111.05 103.63 110.61 104.06C110.17 104.5 109.64 104.72 109.02 104.72L106.97 104.72C106.35 104.72 105.82 104.5 105.38 104.06C104.94 103.63 104.72 103.09 104.72 102.47L104.72 100.43C104.72 99.8 104.94 99.27 105.38 98.84C105.82 98.4 106.35 98.18 106.97 98.18L109.02 98.18C109.64 98.18 110.17 98.4 110.61 98.84C111.05 99.27 111.27 99.8 111.27 100.43L111.27 102.47Z" fill="#205BC9" fill-opacity="1.000000" fill-rule="nonzero"/>
	<path id="Vector" d="M117.82 98.18L124.36 98.18L124.36 104.72L117.82 104.72L117.82 98.18Z" fill="#205BC9" fill-opacity="1.000000" fill-rule="evenodd"/>
	<path id="Vector" d="M130.91 98.18L137.45 98.18L137.45 104.72L130.91 104.72L130.91 98.18Z" fill="#205BC9" fill-opacity="1.000000" fill-rule="evenodd"/>
	<path id="Vector" d="M157.09 98.18L150.54 98.18L150.54 102.47C150.54 103.09 150.76 103.63 151.2 104.06C151.64 104.5 152.17 104.72 152.79 104.72L157.09 104.72L157.09 98.18Z" fill="#205BC9" fill-opacity="1.000000" fill-rule="nonzero"/>
	<path id="Vector" d="M157.09 98.18L163.64 98.18L163.64 104.72L157.09 104.72L157.09 98.18Z" fill="#205BC9" fill-opacity="1.000000" fill-rule="evenodd"/>
	<path id="Vector" d="M176.72 98.18L183.27 98.18L183.27 104.72L176.72 104.72L176.72 98.18Z" fill="#205BC9" fill-opacity="1.000000" fill-rule="evenodd"/>
	<path id="Vector" d="M13.07 106.82L13.09 106.82L13.09 104.72L6.54 104.72L6.54 106.82L6.55 106.82C6.55 106.89 6.54 106.94 6.54 106.97L6.54 109.02C6.54 109.64 6.76 110.17 7.2 110.61C7.64 111.05 8.17 111.27 8.79 111.27L10.84 111.27C11.46 111.27 11.99 111.05 12.43 110.61C12.87 110.17 13.09 109.64 13.09 109.02L13.09 106.97C13.09 106.94 13.08 106.89 13.07 106.82Z" fill="#205BC9" fill-opacity="1.000000" fill-rule="nonzero"/>
	<path id="Vector" d="M19.63 104.72L26.18 104.72L26.18 111.27L19.63 111.27L19.63 104.72Z" fill="#205BC9" fill-opacity="1.000000" fill-rule="evenodd"/>
	<path id="Vector" d="M26.18 104.72L32.73 104.72L32.73 111.27L26.18 111.27L26.18 104.72Z" fill="#205BC9" fill-opacity="1.000000" fill-rule="evenodd"/>
	<path id="Vector" d="M32.72 104.72L39.27 104.72L39.27 111.27L32.72 111.27L32.72 104.72Z" fill="#205BC9" fill-opacity="1.000000" fill-rule="evenodd"/>
	<path id="Vector" d="M43.57 104.72L39.27 104.72L39.27 111.27L43.57 111.27C44.19 111.27 44.72 111.05 45.16 110.61C45.59 110.17 45.82 109.64 45.82 109.02L45.82 106.97C45.82 106.35 45.59 105.82 45.16 105.38C44.72 104.94 44.19 104.72 43.57 104.72Z" fill="#205BC9" fill-opacity="1.000000" fill-rule="nonzero"/>
	<path id="Vector" d="M65.45 104.72L58.91 104.72L58.91 109.02C58.91 109.64 59.12 110.17 59.57 110.61C60 111.05 60.53 111.27 61.16 111.27L65.45 111.27L65.45 104.72Z" fill="#205BC9" fill-opacity="1.000000" fill-rule="nonzero"/>
	<path id="Vector" d="M65.45 104.72L72 104.72L72 111.27L65.45 111.27L65.45 104.72Z" fill="#205BC9" fill-opacity="1.000000" fill-rule="evenodd"/>
	<path id="Vector" d="M72 104.72L78.54 104.72L78.54 111.27L72 111.27L72 104.72Z" fill="#205BC9" fill-opacity="1.000000" fill-rule="evenodd"/>
	<path id="Vector" d="M82.84 104.72L78.54 104.72L78.54 111.27L82.84 111.27C83.46 111.27 83.99 111.05 84.43 110.61C84.87 110.17 85.09 109.64 85.09 109.02L85.09 106.97C85.09 106.35 84.87 105.82 84.43 105.38C83.99 104.94 83.46 104.72 82.84 104.72Z" fill="#205BC9" fill-opacity="1.000000" fill-rule="nonzero"/>
	<path id="Vector" d="M91.63 104.72L98.18 104.72L98.18 111.27L91.63 111.27L91.63 104.72Z" fill="#205BC9" fill-opacity="1.000000" fill-rule="evenodd"/>
	<path id="Vector" d="M104.73 106.97C104.73 106.35 104.5 105.82 104.07 105.38C103.63 104.94 103.1 104.72 102.48 104.72L98.18 104.72L98.18 111.27L104.73 111.27L104.73 106.97Z" fill="#205BC9" fill-opacity="1.000000" fill-rule="nonzero"/>
	<path id="Vector" d="M117.82 104.72L124.36 104.72L124.36 111.27L117.82 111.27L117.82 104.72Z" fill="#205BC9" fill-opacity="1.000000" fill-rule="evenodd"/>
	<path id="Vector" d="M130.91 104.72L137.45 104.72L137.45 111.27L130.91 111.27L130.91 104.72Z" fill="#205BC9" fill-opacity="1.000000" fill-rule="evenodd"/>
	<path id="Vector" d="M141.75 104.72L137.45 104.72L137.45 111.27L141.75 111.27C142.37 111.27 142.9 111.05 143.34 110.61C143.78 110.17 144 109.64 144 109.02L144 106.97C144 106.35 143.78 105.82 143.34 105.38C142.9 104.94 142.37 104.72 141.75 104.72Z" fill="#205BC9" fill-opacity="1.000000" fill-rule="nonzero"/>
	<path id="Vector" d="M163.64 104.72L157.09 104.72L157.09 109.02C157.09 109.64 157.31 110.17 157.75 110.61C158.19 111.05 158.72 111.27 159.34 111.27L163.64 111.27L163.64 104.72Z" fill="#205BC9" fill-opacity="1.000000" fill-rule="nonzero"/>
	<path id="Vector" d="M170.18 106.97C170.18 106.35 169.96 105.82 169.52 105.38C169.08 104.94 168.55 104.72 167.93 104.72L163.63 104.72L163.63 111.27L170.18 111.27L170.18 106.97Z" fill="#205BC9" fill-opacity="1.000000" fill-rule="nonzero"/>
	<path id="Vector" d="M176.72 104.72L183.27 104.72L183.27 111.27L176.72 111.27L176.72 104.72Z" fill="#205BC9" fill-opacity="1.000000" fill-rule="evenodd"/>
	<path id="Vector" d="M19.64 113.52L19.64 111.27L15.34 111.27C14.72 111.27 14.19 111.49 13.75 111.93C13.31 112.37 13.09 112.9 13.09 113.52L13.09 115.56C13.09 116.19 13.31 116.72 13.75 117.16C14.19 117.59 14.72 117.81 15.34 117.81L19.64 117.81L19.64 113.52Z" fill="#205BC9" fill-opacity="1.000000" fill-rule="nonzero"/>
	<path id="Vector" d="M19.63 111.27L26.18 111.27L26.18 117.81L19.63 117.81L19.63 111.27Z" fill="#205BC9" fill-opacity="1.000000" fill-rule="evenodd"/>
	<path id="Vector" d="M26.18 111.27L32.73 111.27L32.73 117.81L26.18 117.81L26.18 111.27Z" fill="#205BC9" fill-opacity="1.000000" fill-rule="evenodd"/>
	<path id="Vector" d="M39.27 111.27L32.72 111.27L32.72 117.81L37.02 117.81C37.64 117.81 38.17 117.59 38.61 117.16C39.05 116.72 39.27 116.19 39.27 115.56L39.27 111.27Z" fill="#205BC9" fill-opacity="1.000000" fill-rule="nonzero"/>
	<path id="Vector" d="M91.63 111.27L98.18 111.27L98.18 117.81L91.63 117.81L91.63 111.27Z" fill="#205BC9" fill-opacity="1.000000" fill-rule="evenodd"/>
	<path id="Vector" d="M98.18 111.27L104.73 111.27L104.73 117.81L98.18 117.81L98.18 111.27Z" fill="#205BC9" fill-opacity="1.000000" fill-rule="evenodd"/>
	<path id="Vector" d="M117.82 113.52L117.82 111.27L113.52 111.27C112.9 111.27 112.37 111.49 111.93 111.93C111.49 112.37 111.27 112.9 111.27 113.52L111.27 117.81L117.82 117.81L117.82 113.52Z" fill="#205BC9" fill-opacity="1.000000" fill-rule="nonzero"/>
	<path id="Vector" d="M117.82 111.27L124.36 111.27L124.36 117.81L117.82 117.81L117.82 111.27Z" fill="#205BC9" fill-opacity="1.000000" fill-rule="evenodd"/>
	<path id="Vector" d="M130.91 111.27L137.45 111.27L137.45 117.81L130.91 117.81L130.91 111.27Z" fill="#205BC9" fill-opacity="1.000000" fill-rule="evenodd"/>
	<path id="Vector" d="M157.09 113.52C157.09 112.9 156.87 112.37 156.43 111.93C155.99 111.49 155.46 111.27 154.84 111.27L152.79 111.27C152.17 111.27 151.64 111.49 151.2 111.93C150.76 112.37 150.54 112.9 150.54 113.52L150.54 115.56C150.54 115.6 150.55 115.65 150.55 115.72L150.54 115.72L150.54 117.81L157.09 117.81L157.09 115.72L157.07 115.72C157.09 115.65 157.09 115.6 157.09 115.56L157.09 113.52Z" fill="#205BC9" fill-opacity="1.000000" fill-rule="nonzero"/>
	<path id="Vector" d="M170.18 111.27L163.63 111.27L163.63 115.56C163.63 116.19 163.85 116.72 164.29 117.16C164.73 117.59 165.26 117.81 165.88 117.81L170.18 117.81L170.18 111.27Z" fill="#205BC9" fill-opacity="1.000000" fill-rule="nonzero"/>
	<path id="Vector" d="M170.18 111.27L176.73 111.27L176.73 117.81L170.18 117.81L170.18 111.27Z" fill="#205BC9" fill-opacity="1.000000" fill-rule="evenodd"/>
	<path id="Vector" d="M183.27 111.27L176.72 111.27L176.72 117.81L181.02 117.81C181.64 117.81 182.17 117.59 182.61 117.16C183.05 116.72 183.27 116.19 183.27 115.56L183.27 111.27Z" fill="#205BC9" fill-opacity="1.000000" fill-rule="nonzero"/>
	<path id="Vector" d="M6.54 122.11C6.54 122.73 6.32 123.26 5.88 123.7C5.44 124.14 4.91 124.36 4.29 124.36L2.25 124.36C1.62 124.36 1.09 124.14 0.66 123.7C0.21 123.26 0 122.73 0 122.11L0 120.06C0 119.44 0.21 118.91 0.66 118.47C1.09 118.03 1.62 117.81 2.25 117.81L4.29 117.81C4.91 117.81 5.44 118.03 5.88 118.47C6.32 118.91 6.54 119.44 6.54 120.06L6.54 122.11Z" fill="#205BC9" fill-opacity="1.000000" fill-rule="nonzero"/>
	<path id="Vector" d="M45.82 120.06L45.82 117.81L41.52 117.81C40.9 117.81 40.37 118.03 39.93 118.47C39.49 118.91 39.27 119.44 39.27 120.06L39.27 122.11C39.27 122.73 39.49 123.26 39.93 123.7C40.37 124.14 40.9 124.36 41.52 124.36L45.82 124.36L45.82 120.06Z" fill="#205BC9" fill-opacity="1.000000" fill-rule="nonzero"/>
	<path id="Vector" d="M52.36 120.06C52.36 119.44 52.14 118.91 51.7 118.47C51.26 118.03 50.73 117.81 50.11 117.81L45.82 117.81L45.82 124.36L52.36 124.36L52.36 120.06Z" fill="#205BC9" fill-opacity="1.000000" fill-rule="nonzero"/>
	<path id="Vector" d="M72 120.06L72 117.81L67.7 117.81C67.08 117.81 66.55 118.03 66.11 118.47C65.67 118.91 65.45 119.44 65.45 120.06L65.45 122.11C65.45 122.73 65.67 123.26 66.11 123.7C66.55 124.14 67.08 124.36 67.7 124.36L72 124.36L72 120.06Z" fill="#205BC9" fill-opacity="1.000000" fill-rule="nonzero"/>
	<path id="Vector" d="M76.29 117.81L72 117.81L72 124.36L76.29 124.36C76.91 124.36 77.44 124.14 77.88 123.7C78.32 123.26 78.54 122.73 78.54 122.11L78.54 120.06C78.54 119.44 78.32 118.91 77.88 118.47C77.44 118.03 76.91 117.81 76.29 117.81Z" fill="#205BC9" fill-opacity="1.000000" fill-rule="nonzero"/>
	<path id="Vector" d="M91.64 120.06L91.64 117.81L87.34 117.81C86.72 117.81 86.19 118.03 85.75 118.47C85.31 118.91 85.09 119.44 85.09 120.06L85.09 124.36L91.64 124.36L91.64 120.06Z" fill="#205BC9" fill-opacity="1.000000" fill-rule="nonzero"/>
	<path id="Vector" d="M91.63 117.81L98.18 117.81L98.18 124.36L91.63 124.36L91.63 117.81Z" fill="#205BC9" fill-opacity="1.000000" fill-rule="evenodd"/>
	<path id="Vector" d="M98.18 117.81L104.73 117.81L104.73 124.36L98.18 124.36L98.18 117.81Z" fill="#205BC9" fill-opacity="1.000000" fill-rule="evenodd"/>
	<path id="Vector" d="M104.72 117.81L111.27 117.81L111.27 124.36L104.72 124.36L104.72 117.81Z" fill="#205BC9" fill-opacity="1.000000" fill-rule="evenodd"/>
	<path id="Vector" d="M111.27 117.81L117.82 117.81L117.82 124.36L111.27 124.36L111.27 117.81Z" fill="#205BC9" fill-opacity="1.000000" fill-rule="evenodd"/>
	<path id="Vector" d="M124.36 117.81L117.82 117.81L117.82 124.36L122.11 124.36C122.73 124.36 123.27 124.14 123.7 123.7C124.14 123.26 124.36 122.73 124.36 122.11L124.36 117.81Z" fill="#205BC9" fill-opacity="1.000000" fill-rule="nonzero"/>
	<path id="Vector" d="M130.91 117.81L137.45 117.81L137.45 124.36L130.91 124.36L130.91 117.81Z" fill="#205BC9" fill-opacity="1.000000" fill-rule="evenodd"/>
	<path id="Vector" d="M137.45 117.81L144 117.81L144 124.36L137.45 124.36L137.45 117.81Z" fill="#205BC9" fill-opacity="1.000000" fill-rule="evenodd"/>
	<path id="Vector" d="M144 117.81L150.54 117.81L150.54 124.36L144 124.36L144 117.81Z" fill="#205BC9" fill-opacity="1.000000" fill-rule="evenodd"/>
	<path id="Vector" d="M157.09 117.81L150.54 117.81L150.54 124.36L154.84 124.36C155.46 124.36 155.99 124.14 156.43 123.7C156.87 123.26 157.09 122.73 157.09 122.11L157.09 117.81Z" fill="#205BC9" fill-opacity="1.000000" fill-rule="nonzero"/>
	<path id="Vector" d="M170.18 117.81L176.73 117.81L176.73 124.36L170.18 124.36L170.18 117.81Z" fill="#205BC9" fill-opacity="1.000000" fill-rule="evenodd"/>
	<path id="Vector" d="M19.64 126.61L19.64 124.36L15.34 124.36C14.72 124.36 14.19 124.58 13.75 125.02C13.31 125.46 13.09 125.99 13.09 126.61L13.09 130.9L19.64 130.9L19.64 126.61Z" fill="#205BC9" fill-opacity="1.000000" fill-rule="nonzero"/>
	<path id="Vector" d="M19.63 124.36L26.18 124.36L26.18 130.9L19.63 130.9L19.63 124.36Z" fill="#205BC9" fill-opacity="1.000000" fill-rule="evenodd"/>
	<path id="Vector" d="M26.18 124.36L32.73 124.36L32.73 130.9L26.18 130.9L26.18 124.36Z" fill="#205BC9" fill-opacity="1.000000" fill-rule="evenodd"/>
	<path id="Vector" d="M39.27 126.61C39.27 125.99 39.05 125.46 38.61 125.02C38.17 124.58 37.64 124.36 37.02 124.36L32.72 124.36L32.72 130.9L39.27 130.9L39.27 126.61Z" fill="#205BC9" fill-opacity="1.000000" fill-rule="nonzero"/>
	<path id="Vector" d="M52.35 126.46L52.36 126.46L52.36 124.36L45.82 124.36L45.82 126.46L45.83 126.46C45.82 126.52 45.82 126.58 45.82 126.61L45.82 128.65C45.82 129.28 46.03 129.81 46.48 130.25C46.91 130.69 47.44 130.9 48.07 130.9L50.11 130.9C50.73 130.9 51.26 130.69 51.7 130.25C52.14 129.81 52.36 129.28 52.36 128.65L52.36 126.61C52.36 126.58 52.36 126.52 52.35 126.46Z" fill="#205BC9" fill-opacity="1.000000" fill-rule="nonzero"/>
	<path id="Vector" d="M85.09 126.61L85.09 124.36L80.79 124.36C80.17 124.36 79.64 124.58 79.2 125.02C78.76 125.46 78.54 125.99 78.54 126.61L78.54 130.9L85.09 130.9L85.09 126.61Z" fill="#205BC9" fill-opacity="1.000000" fill-rule="nonzero"/>
	<path id="Vector" d="M85.09 124.36L91.64 124.36L91.64 130.9L85.09 130.9L85.09 124.36Z" fill="#205BC9" fill-opacity="1.000000" fill-rule="evenodd"/>
	<path id="Vector" d="M91.63 124.36L98.18 124.36L98.18 130.9L91.63 130.9L91.63 124.36Z" fill="#205BC9" fill-opacity="1.000000" fill-rule="evenodd"/>
	<path id="Vector" d="M104.73 124.36L98.18 124.36L98.18 130.9L102.48 130.9C103.1 130.9 103.63 130.69 104.07 130.25C104.5 129.81 104.73 129.28 104.73 128.65L104.73 124.36Z" fill="#205BC9" fill-opacity="1.000000" fill-rule="nonzero"/>
	<path id="Vector" d="M111.27 124.36L117.82 124.36L117.82 130.9L111.27 130.9L111.27 124.36Z" fill="#205BC9" fill-opacity="1.000000" fill-rule="evenodd"/>
	<path id="Vector" d="M130.91 126.61L130.91 124.36L126.61 124.36C125.99 124.36 125.46 124.58 125.02 125.02C124.58 125.46 124.36 125.99 124.36 126.61L124.36 130.9L130.91 130.9L130.91 126.61Z" fill="#205BC9" fill-opacity="1.000000" fill-rule="nonzero"/>
	<path id="Vector" d="M130.91 124.36L137.45 124.36L137.45 130.9L130.91 130.9L130.91 124.36Z" fill="#205BC9" fill-opacity="1.000000" fill-rule="evenodd"/>
	<path id="Vector" d="M170.18 124.36L176.73 124.36L176.73 130.9L170.18 130.9L170.18 124.36Z" fill="#205BC9" fill-opacity="1.000000" fill-rule="evenodd"/>
	<path id="Vector" d="M13.09 133.15L13.09 130.9L8.79 130.9C8.17 130.9 7.64 131.12 7.2 131.56C6.76 132 6.54 132.53 6.54 133.15L6.54 135.2C6.54 135.82 6.76 136.35 7.2 136.79C7.64 137.23 8.17 137.45 8.79 137.45L13.09 137.45L13.09 133.15Z" fill="#205BC9" fill-opacity="1.000000" fill-rule="nonzero"/>
	<path id="Vector" d="M13.09 130.9L19.64 130.9L19.64 137.45L13.09 137.45L13.09 130.9Z" fill="#205BC9" fill-opacity="1.000000" fill-rule="evenodd"/>
	<path id="Vector" d="M19.63 130.9L26.18 130.9L26.18 137.45L19.63 137.45L19.63 130.9Z" fill="#205BC9" fill-opacity="1.000000" fill-rule="evenodd"/>
	<path id="Vector" d="M26.18 130.9L32.73 130.9L32.73 137.45L26.18 137.45L26.18 130.9Z" fill="#205BC9" fill-opacity="1.000000" fill-rule="evenodd"/>
	<path id="Vector" d="M32.72 130.9L39.27 130.9L39.27 137.45L32.72 137.45L32.72 130.9Z" fill="#205BC9" fill-opacity="1.000000" fill-rule="evenodd"/>
	<path id="Vector" d="M43.57 130.9L39.27 130.9L39.27 137.45L43.57 137.45C44.19 137.45 44.72 137.23 45.16 136.79C45.59 136.35 45.82 135.82 45.82 135.2L45.82 133.15C45.82 132.53 45.59 132 45.16 131.56C44.72 131.12 44.19 130.9 43.57 130.9Z" fill="#205BC9" fill-opacity="1.000000" fill-rule="nonzero"/>
	<path id="Vector" d="M65.45 133.15L65.45 130.9L61.16 130.9C60.53 130.9 60 131.12 59.57 131.56C59.12 132 58.91 132.53 58.91 133.15L58.91 137.45L65.45 137.45L65.45 133.15Z" fill="#205BC9" fill-opacity="1.000000" fill-rule="nonzero"/>
	<path id="Vector" d="M69.75 130.9L65.45 130.9L65.45 137.45L69.75 137.45C70.37 137.45 70.9 137.23 71.34 136.79C71.78 136.35 72 135.82 72 135.2L72 133.15C72 132.53 71.78 132 71.34 131.56C70.9 131.12 70.37 130.9 69.75 130.9Z" fill="#205BC9" fill-opacity="1.000000" fill-rule="nonzero"/>
	<path id="Vector" d="M85.09 130.9L78.54 130.9L78.54 135.2C78.54 135.82 78.76 136.35 79.2 136.79C79.64 137.23 80.17 137.45 80.79 137.45L85.09 137.45L85.09 130.9Z" fill="#205BC9" fill-opacity="1.000000" fill-rule="nonzero"/>
	<path id="Vector" d="M85.09 130.9L91.64 130.9L91.64 137.45L85.09 137.45L85.09 130.9Z" fill="#205BC9" fill-opacity="1.000000" fill-rule="evenodd"/>
	<path id="Vector" d="M98.18 130.9L91.63 130.9L91.63 137.45L95.93 137.45C96.55 137.45 97.08 137.23 97.52 136.79C97.96 136.35 98.18 135.82 98.18 135.2L98.18 130.9Z" fill="#205BC9" fill-opacity="1.000000" fill-rule="nonzero"/>
	<path id="Vector" d="M117.82 130.9L111.27 130.9L111.27 135.2C111.27 135.82 111.49 136.35 111.93 136.79C112.37 137.23 112.9 137.45 113.52 137.45L117.82 137.45L117.82 130.9Z" fill="#205BC9" fill-opacity="1.000000" fill-rule="nonzero"/>
	<path id="Vector" d="M117.82 130.9L124.36 130.9L124.36 137.45L117.82 137.45L117.82 130.9Z" fill="#205BC9" fill-opacity="1.000000" fill-rule="evenodd"/>
	<path id="Vector" d="M124.36 130.9L130.91 130.9L130.91 137.45L124.36 137.45L124.36 130.9Z" fill="#205BC9" fill-opacity="1.000000" fill-rule="evenodd"/>
	<path id="Vector" d="M130.91 130.9L137.45 130.9L137.45 137.45L130.91 137.45L130.91 130.9Z" fill="#205BC9" fill-opacity="1.000000" fill-rule="evenodd"/>
	<path id="Vector" d="M137.45 130.9L144 130.9L144 137.45L137.45 137.45L137.45 130.9Z" fill="#205BC9" fill-opacity="1.000000" fill-rule="evenodd"/>
	<path id="Vector" d="M144 130.9L150.54 130.9L150.54 137.45L144 137.45L144 130.9Z" fill="#205BC9" fill-opacity="1.000000" fill-rule="evenodd"/>
	<path id="Vector" d="M150.54 130.9L157.09 130.9L157.09 137.45L150.54 137.45L150.54 130.9Z" fill="#205BC9" fill-opacity="1.000000" fill-rule="evenodd"/>
	<path id="Vector" d="M157.09 130.9L163.64 130.9L163.64 137.45L157.09 137.45L157.09 130.9Z" fill="#205BC9" fill-opacity="1.000000" fill-rule="evenodd"/>
	<path id="Vector" d="M163.63 130.9L170.18 130.9L170.18 137.45L163.63 137.45L163.63 130.9Z" fill="#205BC9" fill-opacity="1.000000" fill-rule="evenodd"/>
	<path id="Vector" d="M170.18 130.9L176.73 130.9L176.73 137.45L170.18 137.45L170.18 130.9Z" fill="#205BC9" fill-opacity="1.000000" fill-rule="evenodd"/>
	<path id="Vector" d="M58.91 139.7L58.91 137.45L54.61 137.45C53.99 137.45 53.46 137.67 53.02 138.11C52.58 138.55 52.36 139.08 52.36 139.7L52.36 144L58.91 144L58.91 139.7Z" fill="#205BC9" fill-opacity="1.000000" fill-rule="nonzero"/>
	<path id="Vector" d="M58.91 137.45L65.45 137.45L65.45 144L58.91 144L58.91 137.45Z" fill="#205BC9" fill-opacity="1.000000" fill-rule="evenodd"/>
	<path id="Vector" d="M78.54 141.75C78.54 142.37 78.32 142.9 77.88 143.34C77.44 143.78 76.91 144 76.29 144L74.25 144C73.62 144 73.09 143.78 72.66 143.34C72.21 142.9 72 142.37 72 141.75L72 139.7C72 139.08 72.21 138.55 72.66 138.11C73.09 137.67 73.62 137.45 74.25 137.45L76.29 137.45C76.91 137.45 77.44 137.67 77.88 138.11C78.32 138.55 78.54 139.08 78.54 139.7L78.54 141.75Z" fill="#205BC9" fill-opacity="1.000000" fill-rule="nonzero"/>
	<path id="Vector" d="M111.27 139.7C111.27 139.08 111.05 138.55 110.61 138.11C110.17 137.67 109.64 137.45 109.02 137.45L106.97 137.45C106.35 137.45 105.82 137.67 105.38 138.11C104.94 138.55 104.72 139.08 104.72 139.7L104.72 141.75C104.72 141.78 104.73 141.83 104.73 141.9L104.72 141.9L104.72 144L111.27 144L111.27 141.9L111.25 141.9C111.27 141.83 111.27 141.78 111.27 141.75L111.27 139.7Z" fill="#205BC9" fill-opacity="1.000000" fill-rule="nonzero"/>
	<path id="Vector" d="M124.35 139.55L124.36 139.55L124.36 137.45L117.82 137.45L117.82 139.55L117.83 139.55C117.82 139.61 117.82 139.67 117.82 139.7L117.82 141.75C117.82 142.37 118.03 142.9 118.48 143.34C118.91 143.78 119.44 144 120.07 144L122.11 144C122.73 144 123.27 143.78 123.7 143.34C124.14 142.9 124.36 142.37 124.36 141.75L124.36 139.7C124.36 139.67 124.36 139.61 124.35 139.55Z" fill="#205BC9" fill-opacity="1.000000" fill-rule="nonzero"/>
	<path id="Vector" d="M130.91 137.45L137.45 137.45L137.45 144L130.91 144L130.91 137.45Z" fill="#205BC9" fill-opacity="1.000000" fill-rule="evenodd"/>
	<path id="Vector" d="M157.09 137.45L163.64 137.45L163.64 144L157.09 144L157.09 137.45Z" fill="#205BC9" fill-opacity="1.000000" fill-rule="evenodd"/>
	<path id="Vector" d="M163.63 137.45L170.18 137.45L170.18 144L163.63 144L163.63 137.45Z" fill="#205BC9" fill-opacity="1.000000" fill-rule="evenodd"/>
	<path id="Vector" d="M170.18 137.45L176.73 137.45L176.73 144L170.18 144L170.18 137.45Z" fill="#205BC9" fill-opacity="1.000000" fill-rule="evenodd"/>
	<path id="Vector" d="M176.72 137.45L183.27 137.45L183.27 144L176.72 144L176.72 137.45Z" fill="#205BC9" fill-opacity="1.000000" fill-rule="evenodd"/>
	<path id="Vector" d="M187.57 137.45L183.27 137.45L183.27 144L187.57 144C188.19 144 188.72 143.78 189.16 143.34C189.59 142.9 189.82 142.37 189.82 141.75L189.82 139.7C189.82 139.08 189.59 138.55 189.16 138.11C188.72 137.67 188.19 137.45 187.57 137.45Z" fill="#205BC9" fill-opacity="1.000000" fill-rule="nonzero"/>
	<path id="Vector" d="M52.36 144L58.91 144L58.91 150.54L52.36 150.54L52.36 144Z" fill="#205BC9" fill-opacity="1.000000" fill-rule="evenodd"/>
	<path id="Vector" d="M65.45 144L58.91 144L58.91 150.54L63.2 150.54C63.82 150.54 64.35 150.32 64.79 149.88C65.23 149.44 65.45 148.91 65.45 148.29L65.45 144Z" fill="#205BC9" fill-opacity="1.000000" fill-rule="nonzero"/>
	<path id="Vector" d="M85.09 148.29C85.09 148.91 84.87 149.44 84.43 149.88C83.99 150.32 83.46 150.54 82.84 150.54L80.79 150.54C80.17 150.54 79.64 150.32 79.2 149.88C78.76 149.44 78.54 148.91 78.54 148.29L78.54 146.25C78.54 145.62 78.76 145.09 79.2 144.65C79.64 144.21 80.17 144 80.79 144L82.84 144C83.46 144 83.99 144.21 84.43 144.65C84.87 145.09 85.09 145.62 85.09 146.25L85.09 148.29Z" fill="#205BC9" fill-opacity="1.000000" fill-rule="nonzero"/>
	<path id="Vector" d="M98.18 146.25C98.18 145.62 97.96 145.09 97.52 144.65C97.08 144.21 96.55 144 95.93 144L93.88 144C93.26 144 92.73 144.21 92.29 144.65C91.85 145.09 91.63 145.62 91.63 146.25L91.63 148.29C91.63 148.33 91.64 148.38 91.64 148.44L91.63 148.44L91.63 150.54L98.18 150.54L98.18 148.44L98.16 148.44C98.17 148.38 98.18 148.33 98.18 148.29L98.18 146.25Z" fill="#205BC9" fill-opacity="1.000000" fill-rule="nonzero"/>
	<path id="Vector" d="M104.72 144L111.27 144L111.27 150.54L104.72 150.54L104.72 144Z" fill="#205BC9" fill-opacity="1.000000" fill-rule="evenodd"/>
	<path id="Vector" d="M115.57 144L111.27 144L111.27 150.54L115.57 150.54C116.19 150.54 116.72 150.32 117.16 149.88C117.59 149.44 117.82 148.91 117.82 148.29L117.82 146.25C117.82 145.62 117.59 145.09 117.16 144.65C116.72 144.21 116.19 144 115.57 144Z" fill="#205BC9" fill-opacity="1.000000" fill-rule="nonzero"/>
	<path id="Vector" d="M130.91 146.25L130.91 144L126.61 144C125.99 144 125.46 144.21 125.02 144.65C124.58 145.09 124.36 145.62 124.36 146.25L124.36 148.29C124.36 148.91 124.58 149.44 125.02 149.88C125.46 150.32 125.99 150.54 126.61 150.54L130.91 150.54L130.91 146.25Z" fill="#205BC9" fill-opacity="1.000000" fill-rule="nonzero"/>
	<path id="Vector" d="M130.91 144L137.45 144L137.45 150.54L130.91 150.54L130.91 144Z" fill="#205BC9" fill-opacity="1.000000" fill-rule="evenodd"/>
	<path id="Vector" d="M150.54 148.29C150.54 148.91 150.32 149.44 149.88 149.88C149.44 150.32 148.91 150.54 148.29 150.54L146.25 150.54C145.62 150.54 145.09 150.32 144.66 149.88C144.21 149.44 144 148.91 144 148.29L144 146.25C144 145.62 144.21 145.09 144.66 144.65C145.09 144.21 145.62 144 146.25 144L148.29 144C148.91 144 149.44 144.21 149.88 144.65C150.32 145.09 150.54 145.62 150.54 146.25L150.54 148.29Z" fill="#205BC9" fill-opacity="1.000000" fill-rule="nonzero"/>
	<path id="Vector" d="M157.09 144L163.64 144L163.64 150.54L157.09 150.54L157.09 144Z" fill="#205BC9" fill-opacity="1.000000" fill-rule="evenodd"/>
	<path id="Vector" d="M163.63 144L170.18 144L170.18 150.54L163.63 150.54L163.63 144Z" fill="#205BC9" fill-opacity="1.000000" fill-rule="evenodd"/>
	<path id="Vector" d="M183.25 146.09L183.27 146.09L183.27 144L176.72 144L176.72 146.09L176.73 146.09C176.73 146.16 176.72 146.21 176.72 146.25L176.72 148.29C176.72 148.91 176.94 149.44 177.38 149.88C177.82 150.32 178.35 150.54 178.97 150.54L181.02 150.54C181.64 150.54 182.17 150.32 182.61 149.88C183.05 149.44 183.27 148.91 183.27 148.29L183.27 146.25C183.27 146.21 183.27 146.16 183.25 146.09Z" fill="#205BC9" fill-opacity="1.000000" fill-rule="nonzero"/>
	<path id="Vector" d="M58.89 152.64L58.91 152.64L58.91 150.54L52.36 150.54L52.36 152.64L52.37 152.64C52.36 152.71 52.36 152.76 52.36 152.79L52.36 154.84C52.36 155.46 52.58 155.99 53.02 156.43C53.46 156.87 53.99 157.09 54.61 157.09L56.66 157.09C57.28 157.09 57.81 156.87 58.25 156.43C58.68 155.99 58.91 155.46 58.91 154.84L58.91 152.79C58.91 152.76 58.9 152.71 58.89 152.64Z" fill="#205BC9" fill-opacity="1.000000" fill-rule="nonzero"/>
	<path id="Vector" d="M72 154.84C72 155.46 71.78 155.99 71.34 156.43C70.9 156.87 70.37 157.09 69.75 157.09L67.7 157.09C67.08 157.09 66.55 156.87 66.11 156.43C65.67 155.99 65.45 155.46 65.45 154.84L65.45 152.79C65.45 152.17 65.67 151.64 66.11 151.2C66.55 150.76 67.08 150.54 67.7 150.54L69.75 150.54C70.37 150.54 70.9 150.76 71.34 151.2C71.78 151.64 72 152.17 72 152.79L72 154.84Z" fill="#205BC9" fill-opacity="1.000000" fill-rule="nonzero"/>
	<path id="Vector" d="M91.64 152.79L91.64 150.54L87.34 150.54C86.72 150.54 86.19 150.76 85.75 151.2C85.31 151.64 85.09 152.17 85.09 152.79L85.09 154.84C85.09 155.46 85.31 155.99 85.75 156.43C86.19 156.87 86.72 157.09 87.34 157.09L91.64 157.09L91.64 152.79Z" fill="#205BC9" fill-opacity="1.000000" fill-rule="nonzero"/>
	<path id="Vector" d="M98.18 150.54L91.63 150.54L91.63 157.09L95.93 157.09C96.55 157.09 97.08 156.87 97.52 156.43C97.96 155.99 98.18 155.46 98.18 154.84L98.18 150.54Z" fill="#205BC9" fill-opacity="1.000000" fill-rule="nonzero"/>
	<path id="Vector" d="M111.25 152.64L111.27 152.64L111.27 150.54L104.72 150.54L104.72 152.64L104.73 152.64C104.73 152.71 104.72 152.76 104.72 152.79L104.72 154.84C104.72 155.46 104.94 155.99 105.38 156.43C105.82 156.87 106.35 157.09 106.97 157.09L109.02 157.09C109.64 157.09 110.17 156.87 110.61 156.43C111.05 155.99 111.27 155.46 111.27 154.84L111.27 152.79C111.27 152.76 111.27 152.71 111.25 152.64Z" fill="#205BC9" fill-opacity="1.000000" fill-rule="nonzero"/>
	<path id="Vector" d="M124.36 154.84C124.36 155.46 124.14 155.99 123.7 156.43C123.27 156.87 122.73 157.09 122.11 157.09L120.07 157.09C119.44 157.09 118.91 156.87 118.48 156.43C118.03 155.99 117.82 155.46 117.82 154.84L117.82 152.79C117.82 152.17 118.03 151.64 118.48 151.2C118.91 150.76 119.44 150.54 120.07 150.54L122.11 150.54C122.73 150.54 123.27 150.76 123.7 151.2C124.14 151.64 124.36 152.17 124.36 152.79L124.36 154.84Z" fill="#205BC9" fill-opacity="1.000000" fill-rule="nonzero"/>
	<path id="Vector" d="M130.91 150.54L137.45 150.54L137.45 157.09L130.91 157.09L130.91 150.54Z" fill="#205BC9" fill-opacity="1.000000" fill-rule="evenodd"/>
	<path id="Vector" d="M157.09 150.54L163.64 150.54L163.64 157.09L157.09 157.09L157.09 150.54Z" fill="#205BC9" fill-opacity="1.000000" fill-rule="evenodd"/>
	<path id="Vector" d="M170.18 150.54L163.63 150.54L163.63 157.09L167.93 157.09C168.55 157.09 169.08 156.87 169.52 156.43C169.96 155.99 170.18 155.46 170.18 154.84L170.18 150.54Z" fill="#205BC9" fill-opacity="1.000000" fill-rule="nonzero"/>
	<path id="Vector" d="M189.82 154.84C189.82 155.46 189.59 155.99 189.16 156.43C188.72 156.87 188.19 157.09 187.57 157.09L185.52 157.09C184.9 157.09 184.37 156.87 183.93 156.43C183.49 155.99 183.27 155.46 183.27 154.84L183.27 152.79C183.27 152.17 183.49 151.64 183.93 151.2C184.37 150.76 184.9 150.54 185.52 150.54L187.57 150.54C188.19 150.54 188.72 150.76 189.16 151.2C189.59 151.64 189.82 152.17 189.82 152.79L189.82 154.84Z" fill="#205BC9" fill-opacity="1.000000" fill-rule="nonzero"/>
	<path id="Vector" d="M85.09 159.34C85.09 158.71 84.87 158.18 84.43 157.74C83.99 157.31 83.46 157.09 82.84 157.09L80.79 157.09C80.17 157.09 79.64 157.31 79.2 157.74C78.76 158.18 78.54 158.71 78.54 159.34L78.54 161.38C78.54 161.42 78.55 161.47 78.55 161.53L78.54 161.53L78.54 163.63L85.09 163.63L85.09 161.53L85.07 161.53C85.08 161.47 85.09 161.42 85.09 161.38L85.09 159.34Z" fill="#205BC9" fill-opacity="1.000000" fill-rule="nonzero"/>
	<path id="Vector" d="M117.82 159.34C117.82 158.71 117.59 158.18 117.16 157.74C116.72 157.31 116.19 157.09 115.57 157.09L113.52 157.09C112.9 157.09 112.37 157.31 111.93 157.74C111.49 158.18 111.27 158.71 111.27 159.34L111.27 161.38C111.27 161.42 111.27 161.47 111.28 161.53L111.27 161.53L111.27 163.63L117.82 163.63L117.82 161.53L117.8 161.53C117.81 161.47 117.82 161.42 117.82 161.38L117.82 159.34Z" fill="#205BC9" fill-opacity="1.000000" fill-rule="nonzero"/>
	<path id="Vector" d="M137.45 157.09L130.91 157.09L130.91 161.38C130.91 162 131.12 162.53 131.57 162.97C132 163.41 132.53 163.63 133.16 163.63L137.45 163.63L137.45 157.09Z" fill="#205BC9" fill-opacity="1.000000" fill-rule="nonzero"/>
	<path id="Vector" d="M137.45 157.09L144 157.09L144 163.63L137.45 163.63L137.45 157.09Z" fill="#205BC9" fill-opacity="1.000000" fill-rule="evenodd"/>
	<path id="Vector" d="M144 157.09L150.54 157.09L150.54 163.63L144 163.63L144 157.09Z" fill="#205BC9" fill-opacity="1.000000" fill-rule="evenodd"/>
	<path id="Vector" d="M150.54 157.09L157.09 157.09L157.09 163.63L150.54 163.63L150.54 157.09Z" fill="#205BC9" fill-opacity="1.000000" fill-rule="evenodd"/>
	<path id="Vector" d="M157.09 157.09L163.64 157.09L163.64 163.63L157.09 163.63L157.09 157.09Z" fill="#205BC9" fill-opacity="1.000000" fill-rule="evenodd"/>
	<path id="Vector" d="M176.73 161.38C176.73 162 176.5 162.53 176.07 162.97C175.63 163.41 175.1 163.63 174.48 163.63L172.43 163.63C171.81 163.63 171.28 163.41 170.84 162.97C170.4 162.53 170.18 162 170.18 161.38L170.18 159.34C170.18 158.71 170.4 158.18 170.84 157.74C171.28 157.31 171.81 157.09 172.43 157.09L174.48 157.09C175.1 157.09 175.63 157.31 176.07 157.74C176.5 158.18 176.73 158.71 176.73 159.34L176.73 161.38Z" fill="#205BC9" fill-opacity="1.000000" fill-rule="nonzero"/>
	<path id="Vector" d="M58.91 165.88C58.91 165.26 58.68 164.73 58.25 164.29C57.81 163.85 57.28 163.63 56.66 163.63L54.61 163.63C53.99 163.63 53.46 163.85 53.02 164.29C52.58 164.73 52.36 165.26 52.36 165.88L52.36 167.93C52.36 167.96 52.36 168.01 52.37 168.08L52.36 168.08L52.36 170.18L58.91 170.18L58.91 168.08L58.89 168.08C58.9 168.01 58.91 167.96 58.91 167.93L58.91 165.88Z" fill="#205BC9" fill-opacity="1.000000" fill-rule="nonzero"/>
	<path id="Vector" d="M78.54 165.88L78.54 163.63L74.25 163.63C73.62 163.63 73.09 163.85 72.66 164.29C72.21 164.73 72 165.26 72 165.88L72 170.18L78.54 170.18L78.54 165.88Z" fill="#205BC9" fill-opacity="1.000000" fill-rule="nonzero"/>
	<path id="Vector" d="M85.09 163.63L78.54 163.63L78.54 170.18L82.84 170.18C83.46 170.18 83.99 169.96 84.43 169.52C84.87 169.08 85.09 168.55 85.09 167.93L85.09 163.63Z" fill="#205BC9" fill-opacity="1.000000" fill-rule="nonzero"/>
	<path id="Vector" d="M104.73 165.88L104.73 163.63L100.43 163.63C99.81 163.63 99.28 163.85 98.84 164.29C98.4 164.73 98.18 165.26 98.18 165.88L98.18 167.93C98.18 168.55 98.4 169.08 98.84 169.52C99.28 169.96 99.81 170.18 100.43 170.18L104.73 170.18L104.73 165.88Z" fill="#205BC9" fill-opacity="1.000000" fill-rule="nonzero"/>
	<path id="Vector" d="M104.72 163.63L111.27 163.63L111.27 170.18L104.72 170.18L104.72 163.63Z" fill="#205BC9" fill-opacity="1.000000" fill-rule="evenodd"/>
	<path id="Vector" d="M111.27 163.63L117.82 163.63L117.82 170.18L111.27 170.18L111.27 163.63Z" fill="#205BC9" fill-opacity="1.000000" fill-rule="evenodd"/>
	<path id="Vector" d="M122.11 163.63L117.82 163.63L117.82 170.18L122.11 170.18C122.73 170.18 123.27 169.96 123.7 169.52C124.14 169.08 124.36 168.55 124.36 167.93L124.36 165.88C124.36 165.26 124.14 164.73 123.7 164.29C123.27 163.85 122.73 163.63 122.11 163.63Z" fill="#205BC9" fill-opacity="1.000000" fill-rule="nonzero"/>
	<path id="Vector" d="M143.98 165.73L144 165.73L144 163.63L137.45 163.63L137.45 165.73L137.46 165.73C137.46 165.8 137.45 165.85 137.45 165.88L137.45 167.93C137.45 168.55 137.67 169.08 138.11 169.52C138.55 169.96 139.08 170.18 139.7 170.18L141.75 170.18C142.37 170.18 142.9 169.96 143.34 169.52C143.78 169.08 144 168.55 144 167.93L144 165.88C144 165.85 144 165.8 143.98 165.73Z" fill="#205BC9" fill-opacity="1.000000" fill-rule="nonzero"/>
	<path id="Vector" d="M163.64 163.63L157.09 163.63L157.09 167.93C157.09 168.55 157.31 169.08 157.75 169.52C158.19 169.96 158.72 170.18 159.34 170.18L163.64 170.18L163.64 163.63Z" fill="#205BC9" fill-opacity="1.000000" fill-rule="nonzero"/>
	<path id="Vector" d="M167.93 163.63L163.63 163.63L163.63 170.18L167.93 170.18C168.55 170.18 169.08 169.96 169.52 169.52C169.96 169.08 170.18 168.55 170.18 167.93L170.18 165.88C170.18 165.26 169.96 164.73 169.52 164.29C169.08 163.85 168.55 163.63 167.93 163.63Z" fill="#205BC9" fill-opacity="1.000000" fill-rule="nonzero"/>
	<path id="Vector" d="M189.82 165.88C189.82 165.26 189.59 164.73 189.16 164.29C188.72 163.85 188.19 163.63 187.57 163.63L185.52 163.63C184.9 163.63 184.37 163.85 183.93 164.29C183.49 164.73 183.27 165.26 183.27 165.88L183.27 167.93C183.27 167.96 183.27 168.01 183.28 168.08L183.27 168.08L183.27 170.18L189.82 170.18L189.82 168.08L189.8 168.08C189.81 168.01 189.82 167.96 189.82 167.93L189.82 165.88Z" fill="#205BC9" fill-opacity="1.000000" fill-rule="nonzero"/>
	<path id="Vector" d="M58.91 170.18L52.36 170.18L52.36 174.47C52.36 175.09 52.58 175.63 53.02 176.06C53.46 176.5 53.99 176.72 54.61 176.72L58.91 176.72L58.91 170.18Z" fill="#205BC9" fill-opacity="1.000000" fill-rule="nonzero"/>
	<path id="Vector" d="M65.45 172.43C65.45 171.81 65.23 171.27 64.79 170.84C64.35 170.4 63.82 170.18 63.2 170.18L58.91 170.18L58.91 176.72L65.45 176.72L65.45 172.43Z" fill="#205BC9" fill-opacity="1.000000" fill-rule="nonzero"/>
	<path id="Vector" d="M78.53 172.27L78.54 172.27L78.54 170.18L72 170.18L72 172.27L72.01 172.27C72 172.34 72 172.39 72 172.43L72 174.47C72 175.09 72.21 175.63 72.66 176.06C73.09 176.5 73.62 176.72 74.25 176.72L76.29 176.72C76.91 176.72 77.44 176.5 77.88 176.06C78.32 175.63 78.54 175.09 78.54 174.47L78.54 172.43C78.54 172.39 78.54 172.34 78.53 172.27Z" fill="#205BC9" fill-opacity="1.000000" fill-rule="nonzero"/>
	<path id="Vector" d="M91.64 172.43L91.64 170.18L87.34 170.18C86.72 170.18 86.19 170.4 85.75 170.84C85.31 171.27 85.09 171.81 85.09 172.43L85.09 176.72L91.64 176.72L91.64 172.43Z" fill="#205BC9" fill-opacity="1.000000" fill-rule="nonzero"/>
	<path id="Vector" d="M98.18 172.43C98.18 171.81 97.96 171.27 97.52 170.84C97.08 170.4 96.55 170.18 95.93 170.18L91.63 170.18L91.63 176.72L98.18 176.72L98.18 172.43Z" fill="#205BC9" fill-opacity="1.000000" fill-rule="nonzero"/>
	<path id="Vector" d="M117.8 172.27L117.82 172.27L117.82 170.18L111.27 170.18L111.27 172.27L111.28 172.27C111.27 172.34 111.27 172.39 111.27 172.43L111.27 174.47C111.27 175.09 111.49 175.63 111.93 176.06C112.37 176.5 112.9 176.72 113.52 176.72L115.57 176.72C116.19 176.72 116.72 176.5 117.16 176.06C117.59 175.63 117.82 175.09 117.82 174.47L117.82 172.43C117.82 172.39 117.81 172.34 117.8 172.27Z" fill="#205BC9" fill-opacity="1.000000" fill-rule="nonzero"/>
	<path id="Vector" d="M137.45 172.43C137.45 171.81 137.23 171.27 136.79 170.84C136.35 170.4 135.82 170.18 135.2 170.18L133.16 170.18C132.53 170.18 132 170.4 131.57 170.84C131.12 171.27 130.91 171.81 130.91 172.43L130.91 174.47C130.91 174.51 130.91 174.56 130.92 174.63L130.91 174.63L130.91 176.72L137.45 176.72L137.45 174.63L137.44 174.63C137.45 174.56 137.45 174.51 137.45 174.47L137.45 172.43Z" fill="#205BC9" fill-opacity="1.000000" fill-rule="nonzero"/>
	<path id="Vector" d="M157.09 172.43C157.09 171.81 156.87 171.27 156.43 170.84C155.99 170.4 155.46 170.18 154.84 170.18L152.79 170.18C152.17 170.18 151.64 170.4 151.2 170.84C150.76 171.27 150.54 171.81 150.54 172.43L150.54 174.47C150.54 174.51 150.55 174.56 150.55 174.63L150.54 174.63L150.54 176.72L157.09 176.72L157.09 174.63L157.07 174.63C157.09 174.56 157.09 174.51 157.09 174.47L157.09 172.43Z" fill="#205BC9" fill-opacity="1.000000" fill-rule="nonzero"/>
	<path id="Vector" d="M176.73 174.47C176.73 175.09 176.5 175.63 176.07 176.06C175.63 176.5 175.1 176.72 174.48 176.72L172.43 176.72C171.81 176.72 171.28 176.5 170.84 176.06C170.4 175.63 170.18 175.09 170.18 174.47L170.18 172.43C170.18 171.81 170.4 171.27 170.84 170.84C171.28 170.4 171.81 170.18 172.43 170.18L174.48 170.18C175.1 170.18 175.63 170.4 176.07 170.84C176.5 171.27 176.73 171.81 176.73 172.43L176.73 174.47Z" fill="#205BC9" fill-opacity="1.000000" fill-rule="nonzero"/>
	<path id="Vector" d="M189.8 172.27L189.82 172.27L189.82 170.18L183.27 170.18L183.27 172.27L183.28 172.27C183.27 172.34 183.27 172.39 183.27 172.43L183.27 174.47C183.27 175.09 183.49 175.63 183.93 176.06C184.37 176.5 184.9 176.72 185.52 176.72L187.57 176.72C188.19 176.72 188.72 176.5 189.16 176.06C189.59 175.63 189.82 175.09 189.82 174.47L189.82 172.43C189.82 172.39 189.81 172.34 189.8 172.27Z" fill="#205BC9" fill-opacity="1.000000" fill-rule="nonzero"/>
	<path id="Vector" d="M58.91 176.72L65.45 176.72L65.45 183.27L58.91 183.27L58.91 176.72Z" fill="#205BC9" fill-opacity="1.000000" fill-rule="evenodd"/>
	<path id="Vector" d="M72 178.97C72 178.35 71.78 177.82 71.34 177.38C70.9 176.94 70.37 176.72 69.75 176.72L65.45 176.72L65.45 183.27L72 183.27L72 178.97Z" fill="#205BC9" fill-opacity="1.000000" fill-rule="nonzero"/>
	<path id="Vector" d="M85.09 178.97L85.09 176.72L80.79 176.72C80.17 176.72 79.64 176.94 79.2 177.38C78.76 177.82 78.54 178.35 78.54 178.97L78.54 183.27L85.09 183.27L85.09 178.97Z" fill="#205BC9" fill-opacity="1.000000" fill-rule="nonzero"/>
	<path id="Vector" d="M85.09 176.72L91.64 176.72L91.64 183.27L85.09 183.27L85.09 176.72Z" fill="#205BC9" fill-opacity="1.000000" fill-rule="evenodd"/>
	<path id="Vector" d="M91.63 176.72L98.18 176.72L98.18 183.27L91.63 183.27L91.63 176.72Z" fill="#205BC9" fill-opacity="1.000000" fill-rule="evenodd"/>
	<path id="Vector" d="M102.48 176.72L98.18 176.72L98.18 183.27L102.48 183.27C103.1 183.27 103.63 183.05 104.07 182.61C104.5 182.17 104.73 181.64 104.73 181.02L104.73 178.97C104.73 178.35 104.5 177.82 104.07 177.38C103.63 176.94 103.1 176.72 102.48 176.72Z" fill="#205BC9" fill-opacity="1.000000" fill-rule="nonzero"/>
	<path id="Vector" d="M124.36 178.97C124.36 178.35 124.14 177.82 123.7 177.38C123.27 176.94 122.73 176.72 122.11 176.72L120.07 176.72C119.44 176.72 118.91 176.94 118.48 177.38C118.03 177.82 117.82 178.35 117.82 178.97L117.82 181.02C117.82 181.05 117.82 181.1 117.83 181.17L117.82 181.17L117.82 183.27L124.36 183.27L124.36 181.17L124.35 181.17C124.36 181.1 124.36 181.05 124.36 181.02L124.36 178.97Z" fill="#205BC9" fill-opacity="1.000000" fill-rule="nonzero"/>
	<path id="Vector" d="M130.91 176.72L137.45 176.72L137.45 183.27L130.91 183.27L130.91 176.72Z" fill="#205BC9" fill-opacity="1.000000" fill-rule="evenodd"/>
	<path id="Vector" d="M144 178.97C144 178.35 143.78 177.82 143.34 177.38C142.9 176.94 142.37 176.72 141.75 176.72L137.45 176.72L137.45 183.27L144 183.27L144 178.97Z" fill="#205BC9" fill-opacity="1.000000" fill-rule="nonzero"/>
	<path id="Vector" d="M157.07 178.82L157.09 178.82L157.09 176.72L150.54 176.72L150.54 178.82L150.55 178.82C150.55 178.89 150.54 178.94 150.54 178.97L150.54 181.02C150.54 181.64 150.76 182.17 151.2 182.61C151.64 183.05 152.17 183.27 152.79 183.27L154.84 183.27C155.46 183.27 155.99 183.05 156.43 182.61C156.87 182.17 157.09 181.64 157.09 181.02L157.09 178.97C157.09 178.94 157.09 178.89 157.07 178.82Z" fill="#205BC9" fill-opacity="1.000000" fill-rule="nonzero"/>
	<path id="Vector" d="M170.18 178.97C170.18 178.35 169.96 177.82 169.52 177.38C169.08 176.94 168.55 176.72 167.93 176.72L165.88 176.72C165.26 176.72 164.73 176.94 164.29 177.38C163.85 177.82 163.63 178.35 163.63 178.97L163.63 181.02C163.63 181.05 163.64 181.1 163.64 181.17L163.63 181.17L163.63 183.27L170.18 183.27L170.18 181.17L170.16 181.17C170.18 181.1 170.18 181.05 170.18 181.02L170.18 178.97Z" fill="#205BC9" fill-opacity="1.000000" fill-rule="nonzero"/>
	<path id="Vector" d="M183.27 178.97C183.27 178.35 183.05 177.82 182.61 177.38C182.17 176.94 181.64 176.72 181.02 176.72L178.97 176.72C178.35 176.72 177.82 176.94 177.38 177.38C176.94 177.82 176.72 178.35 176.72 178.97L176.72 181.02C176.72 181.05 176.73 181.1 176.73 181.17L176.72 181.17L176.72 183.27L183.27 183.27L183.27 181.17L183.25 181.17C183.27 181.1 183.27 181.05 183.27 181.02L183.27 178.97Z" fill="#205BC9" fill-opacity="1.000000" fill-rule="nonzero"/>
	<path id="Vector" d="M58.91 185.52L58.91 183.27L54.61 183.27C53.99 183.27 53.46 183.49 53.02 183.93C52.58 184.37 52.36 184.9 52.36 185.52L52.36 187.56C52.36 188.19 52.58 188.72 53.02 189.16C53.46 189.59 53.99 189.81 54.61 189.81L58.91 189.81L58.91 185.52Z" fill="#205BC9" fill-opacity="1.000000" fill-rule="nonzero"/>
	<path id="Vector" d="M58.91 183.27L65.45 183.27L65.45 189.81L58.91 189.81L58.91 183.27Z" fill="#205BC9" fill-opacity="1.000000" fill-rule="evenodd"/>
	<path id="Vector" d="M72 183.27L65.45 183.27L65.45 189.81L69.75 189.81C70.37 189.81 70.9 189.59 71.34 189.16C71.78 188.72 72 188.19 72 187.56L72 183.27Z" fill="#205BC9" fill-opacity="1.000000" fill-rule="nonzero"/>
	<path id="Vector" d="M85.09 183.27L78.54 183.27L78.54 187.56C78.54 188.19 78.76 188.72 79.2 189.16C79.64 189.59 80.17 189.81 80.79 189.81L85.09 189.81L85.09 183.27Z" fill="#205BC9" fill-opacity="1.000000" fill-rule="nonzero"/>
	<path id="Vector" d="M85.09 183.27L91.64 183.27L91.64 189.81L85.09 189.81L85.09 183.27Z" fill="#205BC9" fill-opacity="1.000000" fill-rule="evenodd"/>
	<path id="Vector" d="M98.18 183.27L91.63 183.27L91.63 189.81L95.93 189.81C96.55 189.81 97.08 189.59 97.52 189.16C97.96 188.72 98.18 188.19 98.18 187.56L98.18 183.27Z" fill="#205BC9" fill-opacity="1.000000" fill-rule="nonzero"/>
	<path id="Vector" d="M124.36 183.27L117.82 183.27L117.82 187.56C117.82 188.19 118.03 188.72 118.48 189.16C118.91 189.59 119.44 189.81 120.07 189.81L124.36 189.81L124.36 183.27Z" fill="#205BC9" fill-opacity="1.000000" fill-rule="nonzero"/>
	<path id="Vector" d="M124.36 183.27L130.91 183.27L130.91 189.81L124.36 189.81L124.36 183.27Z" fill="#205BC9" fill-opacity="1.000000" fill-rule="evenodd"/>
	<path id="Vector" d="M130.91 183.27L137.45 183.27L137.45 189.81L130.91 189.81L130.91 183.27Z" fill="#205BC9" fill-opacity="1.000000" fill-rule="evenodd"/>
	<path id="Vector" d="M144 183.27L137.45 183.27L137.45 189.81L141.75 189.81C142.37 189.81 142.9 189.59 143.34 189.16C143.78 188.72 144 188.19 144 187.56L144 183.27Z" fill="#205BC9" fill-opacity="1.000000" fill-rule="nonzero"/>
	<path id="Vector" d="M170.16 185.37L170.18 185.37L170.18 183.27L163.63 183.27L163.63 185.37L163.64 185.37C163.64 185.43 163.63 185.48 163.63 185.52L163.63 187.56C163.63 188.19 163.85 188.72 164.29 189.16C164.73 189.59 165.26 189.81 165.88 189.81L167.93 189.81C168.55 189.81 169.08 189.59 169.52 189.16C169.96 188.72 170.18 188.19 170.18 187.56L170.18 185.52C170.18 185.48 170.18 185.43 170.16 185.37Z" fill="#205BC9" fill-opacity="1.000000" fill-rule="nonzero"/>
	<path id="Vector" d="M183.25 185.37L183.27 185.37L183.27 183.27L176.72 183.27L176.72 185.37L176.73 185.37C176.73 185.43 176.72 185.48 176.72 185.52L176.72 187.56C176.72 188.19 176.94 188.72 177.38 189.16C177.82 189.59 178.35 189.81 178.97 189.81L181.02 189.81C181.64 189.81 182.17 189.59 182.61 189.16C183.05 188.72 183.27 188.19 183.27 187.56L183.27 185.52C183.27 185.48 183.27 185.43 183.25 185.37Z" fill="#205BC9" fill-opacity="1.000000" fill-rule="nonzero"/>
	<path id="Vector" d="M30.17 0L15.64 0C8.55 0 2.55 4.68 0.64 11.07C0.44 11.74 0.28 12.42 0.17 13.11C0.06 13.88 0 14.66 0 15.46L0 30.34C0 38.87 7.01 45.81 15.64 45.81L22.91 45.81L30.17 45.81C38.79 45.81 45.81 38.87 45.81 30.34L45.81 15.46C45.81 6.94 38.8 0 30.17 0ZM38.94 30.34C38.94 35.08 35.01 38.94 30.17 38.94L22.91 38.94L15.64 38.94C10.8 38.94 6.87 35.08 6.87 30.34L6.87 15.46C6.87 13.98 7.25 12.59 7.93 11.37C8.58 10.2 9.5 9.19 10.61 8.43C12.03 7.45 13.77 6.87 15.64 6.87L30.17 6.87C35.01 6.87 38.94 10.73 38.94 15.46L38.94 30.34Z" fill="#205BC9" fill-opacity="1.000000" fill-rule="nonzero"/>
	<path id="Vector" d="M174.17 0L159.64 0C152.55 0 146.55 4.68 144.64 11.07C144.44 11.74 144.28 12.42 144.17 13.11C144.06 13.88 144 14.66 144 15.46L144 30.34C144 38.87 151.02 45.81 159.64 45.81L166.91 45.81L174.17 45.81C182.79 45.81 189.81 38.87 189.81 30.34L189.81 15.46C189.81 6.94 182.8 0 174.17 0ZM182.94 30.34C182.94 35.08 179.01 38.94 174.17 38.94L166.91 38.94L159.64 38.94C154.8 38.94 150.87 35.08 150.87 30.34L150.87 15.46C150.87 13.98 151.25 12.59 151.93 11.37C152.58 10.2 153.5 9.19 154.61 8.43C156.03 7.45 157.77 6.87 159.64 6.87L174.17 6.87C179.01 6.87 182.94 10.73 182.94 15.46L182.94 30.34Z" fill="#205BC9" fill-opacity="1.000000" fill-rule="nonzero"/>
	<path id="Vector" d="M30.17 144L15.64 144C8.55 144 2.55 148.68 0.64 155.07C0.44 155.74 0.28 156.42 0.17 157.11C0.06 157.88 0 158.66 0 159.46L0 174.34C0 182.87 7.01 189.81 15.64 189.81L22.91 189.81L30.17 189.81C38.79 189.81 45.81 182.87 45.81 174.34L45.81 159.46C45.81 150.94 38.8 144 30.17 144ZM38.94 174.34C38.94 179.08 35.01 182.94 30.17 182.94L22.91 182.94L15.64 182.94C10.8 182.94 6.87 179.08 6.87 174.34L6.87 159.46C6.87 157.98 7.25 156.59 7.93 155.37C8.58 154.2 9.5 153.19 10.61 152.43C12.03 151.45 13.77 150.87 15.64 150.87L30.17 150.87C35.01 150.87 38.94 154.73 38.94 159.46L38.94 174.34Z" fill="#205BC9" fill-opacity="1.000000" fill-rule="nonzero"/>
	<path id="Vector" d="M18.46 32.72C15.5 32.72 13.08 30.36 13.08 27.46L13.08 18.35C13.08 17.44 13.32 16.59 13.73 15.84C14.13 15.12 14.69 14.51 15.37 14.04C16.25 13.44 17.31 13.09 18.46 13.09L27.35 13.09C30.32 13.09 32.73 15.45 32.73 18.35L32.73 27.46C32.73 30.36 30.32 32.72 27.35 32.72L22.91 32.72L18.46 32.72Z" fill="#205BC9" fill-opacity="1.000000" fill-rule="nonzero"/>
	<path id="Vector" d="M162.46 32.72C159.5 32.72 157.09 30.36 157.09 27.46L157.09 18.35C157.09 17.44 157.32 16.59 157.73 15.84C158.13 15.12 158.69 14.51 159.37 14.04C160.25 13.44 161.31 13.09 162.46 13.09L171.35 13.09C174.32 13.09 176.73 15.45 176.73 18.35L176.73 27.46C176.73 30.36 174.32 32.72 171.35 32.72L166.91 32.72L162.46 32.72Z" fill="#205BC9" fill-opacity="1.000000" fill-rule="nonzero"/>
	<path id="Vector" d="M18.46 176.72C15.5 176.72 13.08 174.36 13.08 171.46L13.08 162.35C13.08 161.44 13.32 160.59 13.73 159.84C14.13 159.12 14.69 158.51 15.37 158.04C16.25 157.44 17.31 157.09 18.46 157.09L27.35 157.09C30.32 157.09 32.73 159.45 32.73 162.35L32.73 171.46C32.73 174.36 30.32 176.72 27.35 176.72L22.91 176.72L18.46 176.72Z" fill="#205BC9" fill-opacity="1.000000" fill-rule="nonzero"/>
</svg>
